<svg xmlns="http://www.w3.org/2000/svg" width="900" height="586" viewBox="0 0 900 586" font-family="ui-sans-serif,-apple-system,Segoe UI,Helvetica,Arial,sans-serif">
<rect width="900" height="586" fill="#1a1a19"/>
<rect x="62" y="10" width="10" height="10" rx="2" fill="#3987e5"/>
<text x="78" y="19" font-size="12" fill="#c3c2b7">Static IP</text>
<rect x="252" y="10" width="10" height="10" rx="2" fill="#d95926"/>
<text x="268" y="19" font-size="12" fill="#c3c2b7">Dynamic IP</text>
<text x="62" y="50" font-size="13" font-weight="600" fill="#ffffff">Cloudflare 1.1.1.1 — round-trip latency</text>
<line x1="62" y1="190.0" x2="768" y2="190.0" stroke="#2e2e2c" stroke-width="1"/>
<text x="54" y="194.0" font-size="11" text-anchor="end" fill="#8a8880">0</text>
<line x1="62" y1="124.0" x2="768" y2="124.0" stroke="#2e2e2c" stroke-width="1"/>
<text x="54" y="128.0" font-size="11" text-anchor="end" fill="#8a8880">2</text>
<line x1="62" y1="58.0" x2="768" y2="58.0" stroke="#2e2e2c" stroke-width="1"/>
<text x="54" y="62.0" font-size="11" text-anchor="end" fill="#8a8880">5</text>
<text x="14" y="124.0" font-size="11" fill="#8a8880" transform="rotate(-90 14 124.0)" text-anchor="middle">ms</text>
<path d="M61.5 110.8 L63.9 110.8 L66.4 110.8 L68.8 110.8 L71.3 110.8 L73.7 110.8 L76.2 110.8 L78.7 110.8 L81.1 110.8 L83.6 110.8 L86.0 110.8 L88.5 110.8 L90.9 110.8 L93.4 110.8 L95.8 110.8 L98.3 110.8 L100.7 110.8 L103.2 110.8 L105.6 110.8 L108.1 110.8 L110.5 110.8 L113.0 110.8 L115.4 110.8 L117.9 110.8 L120.3 110.8 L122.8 110.8 L125.2 110.8 L127.7 110.8 L130.1 110.8 L132.6 110.8 L135.0 110.8 L137.5 110.8 L139.9 110.8 L142.4 110.8 L144.8 110.8 L147.3 110.8 L149.8 110.8 L152.2 110.8 L154.7 110.8 L157.1 110.8 L159.6 110.8 L162.0 110.8 L164.5 110.8 L166.9 110.8 L169.4 110.8 L171.8 110.8 L174.3 110.8 L176.7 110.8 L179.2 110.8 L181.6 110.8 L184.1 110.8 L186.5 110.8 L189.0 110.8 L191.4 110.8 L193.9 110.8 L196.3 110.8 L198.8 110.8 L201.2 110.8 L203.7 110.8 L206.1 110.8 L208.6 110.8 L211.0 110.8 L213.5 110.8 L215.9 110.8 L218.4 110.8 L220.8 110.8 L223.3 110.8 L225.8 110.8 L228.2 110.8 L230.7 110.8 L233.1 110.8 L235.6 110.8 L238.0 110.8 L240.5 110.8 L242.9 110.8 L245.4 110.8 L247.8 110.8 L250.3 110.8 L252.7 110.8 L255.2 110.8 L257.6 110.8 L260.1 110.8 L262.5 110.8 L265.0 110.8 L267.4 110.8 L269.9 110.8 L272.3 110.8 L274.8 110.8 L277.2 110.8 L279.7 110.8 L282.1 110.8 L284.6 110.8 L287.0 110.8 L289.5 110.8 L291.9 110.8 L294.4 110.8 L296.9 110.8 L299.3 110.8 L301.8 110.8 L304.2 110.8 L306.7 110.8 L309.1 110.8 L311.6 110.8 L314.0 110.8 L316.5 110.8 L318.9 110.8 L321.4 110.8 L323.8 110.8 L326.3 110.8 L328.7 110.8 L331.2 110.8 L333.6 110.8 L336.1 110.8 L338.5 110.8 L341.0 110.8 L343.4 110.8 L345.9 110.8 L348.3 110.8 L350.8 110.8 L353.2 110.8 L355.7 110.8 L358.1 110.8 L360.6 110.8 L363.0 110.8 L365.5 110.8 L368.0 110.8 L370.4 110.8 L372.9 110.8 L375.3 110.8 L377.8 110.8 L380.2 110.8 L382.7 110.8 L385.1 110.8 L387.6 110.8 L390.0 110.8 L392.5 110.8 L394.9 110.8 L397.4 110.8 L399.8 110.8 L402.3 110.8 L404.7 110.8 L407.2 110.8 L409.6 110.8 L412.1 110.8 L414.5 110.8 L417.0 110.8 L419.4 110.8 L421.9 110.8 L424.3 110.8 L426.8 110.8 L429.2 110.8 L431.7 110.8 L434.1 110.8 L436.6 110.8 L439.1 110.8 L441.5 110.8 L444.0 110.8 L446.4 110.8 L448.9 110.8 L451.3 110.8 L453.8 110.8 L456.2 110.8 L458.7 110.8 L461.1 110.8 L463.6 110.8 L466.0 110.8 L468.5 110.8 L470.9 110.8 L473.4 110.8 L475.8 110.8 L478.3 110.8 L480.7 110.8 L483.2 110.8 L485.6 110.8 L488.1 110.8 L490.5 110.8 L493.0 110.8 L495.4 110.8 L497.9 110.8 L500.3 110.8 L502.8 110.8 L505.2 110.8 L507.7 110.8 L510.2 110.8 L512.6 110.8 L515.1 110.8 L517.5 110.8 L520.0 110.8 L522.4 110.8 L524.9 110.8 L527.3 110.8 L529.8 110.8 L532.2 110.8 L534.7 110.8 L537.1 110.8 L539.6 110.8 L542.0 110.8 L544.5 110.8 L546.9 110.8 L549.4 110.8 L551.8 110.8 L554.3 110.8 L556.7 110.8 L559.2 110.8 L561.6 110.8 L564.1 110.8 L566.5 110.8 L569.0 110.8 L571.4 110.8 L573.9 110.8 L576.3 110.8 L578.8 110.8 L581.2 110.8 L583.7 110.8 L586.2 110.8 L588.6 110.8 L591.1 110.8 L593.5 110.8 L596.0 110.8 L598.4 110.8 L600.9 110.8 L603.3 110.8 L605.8 110.8 L608.2 110.8 L610.7 110.8 L613.1 110.8 L615.6 110.8 L618.0 110.8 L620.5 110.8 L622.9 110.8 L625.4 110.8 L627.8 110.8 L630.3 110.8 L632.7 110.8 L635.2 110.8 L637.6 110.8 L640.1 110.8 L642.5 110.8 L645.0 110.8 L647.4 110.8 L649.9 110.8 L652.3 110.8 L654.8 110.8 L657.3 110.8 L659.7 110.8 L662.2 110.8 L664.6 110.8 L667.1 110.8 L669.5 110.8 L672.0 110.8 L674.4 110.8 L676.9 110.8 L679.3 110.8 L681.8 110.8 L684.2 110.8 L686.7 110.8 L689.1 110.8 L691.6 110.8 L694.0 110.8 L696.5 110.8 L698.9 110.8 L701.4 110.8 L703.8 110.8 L706.3 110.8 L708.7 110.8 L711.2 110.8 L713.6 110.8 L716.1 110.8 L718.5 110.8 L721.0 110.8 L723.4 110.8 L725.9 110.8 L728.4 110.8 L730.8 110.8 L733.3 110.8 L735.7 110.8 L738.2 110.8 L740.6 110.8 L743.1 110.8 L745.5 110.8 L748.0 110.8 L750.4 110.8 L752.9 110.8 L755.3 110.8 L757.8 110.8 L760.2 110.8 L762.7 110.8 L765.1 110.8 L767.6 110.8" fill="none" stroke="#3987e5" stroke-width="2" stroke-linejoin="round" stroke-linecap="round"/>
<path d="M61.5 110.8 L63.9 110.8 L66.4 110.8 L68.8 110.8 L71.3 110.8 L73.7 110.8 L76.2 110.8 L78.7 110.8 L81.1 110.8 L83.6 110.8 L86.0 110.8 L88.5 110.8 L90.9 110.8 L93.4 110.8 L95.8 110.8 L98.3 124.0 L100.7 110.8 L103.2 110.8 L105.6 110.8 L108.1 110.8 L110.5 124.0 L113.0 110.8 L115.4 110.8 L117.9 110.8 L120.3 110.8 L122.8 110.8 L125.2 110.8 L127.7 110.8 L130.1 110.8 L132.6 110.8 L135.0 110.8 L137.5 110.8 L139.9 110.8 L142.4 110.8 L144.8 110.8 L147.3 137.2 L149.8 110.8 L152.2 110.8 L154.7 110.8 L157.1 110.8 L159.6 110.8 L162.0 110.8 L164.5 110.8 L166.9 110.8 L169.4 110.8 L171.8 110.8 L174.3 110.8 L176.7 110.8 L179.2 110.8 L181.6 137.2 L184.1 110.8 L186.5 110.8 L189.0 110.8 L191.4 110.8 L193.9 110.8 L196.3 110.8 L198.8 110.8 L201.2 110.8 L203.7 110.8 L206.1 110.8 L208.6 110.8 L211.0 110.8 L213.5 124.0 L215.9 110.8 L218.4 110.8 L220.8 110.8 L223.3 110.8 L225.8 110.8 L228.2 110.8 L230.7 110.8 L233.1 110.8 L235.6 110.8 L238.0 110.8 L240.5 110.8 L242.9 110.8 L245.4 110.8 L247.8 110.8 L250.3 110.8 L252.7 110.8 L255.2 110.8 L257.6 110.8 L260.1 110.8 L262.5 110.8 L265.0 110.8 L267.4 110.8 L269.9 110.8 L272.3 110.8 L274.8 110.8 L277.2 110.8 L279.7 110.8 L282.1 110.8 L284.6 124.0 L287.0 110.8 L289.5 110.8 L291.9 110.8 L294.4 110.8 L296.9 110.8 L299.3 110.8 L301.8 110.8 L304.2 110.8 L306.7 110.8 L309.1 137.2 L311.6 110.8 L314.0 110.8 L316.5 110.8 L318.9 110.8 L321.4 110.8 L323.8 110.8 L326.3 110.8 L328.7 110.8 L331.2 137.2 L333.6 137.2 L336.1 110.8 L338.5 110.8 L341.0 110.8 L343.4 110.8 L345.9 110.8 L348.3 110.8 L350.8 110.8 L353.2 110.8 L355.7 110.8 L358.1 110.8 L360.6 110.8 L363.0 110.8 L365.5 124.0 L368.0 110.8 L370.4 110.8 L372.9 110.8 L375.3 110.8 L377.8 110.8 L380.2 110.8 L382.7 110.8 L385.1 110.8 L387.6 110.8 L390.0 110.8 L392.5 110.8 L394.9 110.8 L397.4 110.8 L399.8 110.8 L402.3 110.8 L404.7 110.8 L407.2 110.8 L409.6 110.8 L412.1 110.8 L414.5 110.8 L417.0 110.8 L419.4 124.0 L421.9 110.8 L424.3 124.0 L426.8 137.2 L429.2 110.8 L431.7 110.8 L434.1 110.8 L436.6 110.8 L439.1 110.8 L441.5 110.8 L444.0 110.8 L446.4 110.8 L448.9 110.8 L451.3 110.8 L453.8 110.8 L456.2 110.8 L458.7 137.2 L461.1 110.8 L463.6 110.8 L466.0 110.8 L468.5 110.8 L470.9 110.8 L473.4 110.8 L475.8 110.8 L478.3 137.2 L480.7 110.8 L483.2 110.8 L485.6 110.8 L488.1 110.8 L490.5 110.8 L493.0 110.8 L495.4 110.8 L497.9 110.8 L500.3 110.8 L502.8 110.8 L505.2 110.8 L507.7 124.0 L510.2 110.8 L512.6 110.8 L515.1 137.2 L517.5 110.8 L520.0 110.8 L522.4 110.8 L524.9 110.8 L527.3 110.8 L529.8 110.8 L532.2 110.8 L534.7 110.8 L537.1 110.8 L539.6 110.8 L542.0 110.8 L544.5 110.8 L546.9 110.8 L549.4 110.8 L551.8 110.8 L554.3 110.8 L556.7 110.8 L559.2 110.8 L561.6 110.8 L564.1 110.8 L566.5 110.8 L569.0 110.8 L571.4 110.8 L573.9 137.2 L576.3 110.8 L578.8 110.8 L581.2 110.8 L583.7 110.8 L586.2 110.8 L588.6 110.8 L591.1 110.8 L593.5 110.8 L596.0 110.8 L598.4 110.8 L600.9 137.2 L603.3 110.8 L605.8 110.8 L608.2 110.8 L610.7 110.8 L613.1 110.8 L615.6 110.8 L618.0 110.8 L620.5 110.8 L622.9 110.8 L625.4 110.8 L627.8 110.8 L630.3 110.8 L632.7 110.8 L635.2 110.8 L637.6 110.8 L640.1 137.2 L642.5 110.8 L645.0 110.8 L647.4 110.8 L649.9 110.8 L652.3 110.8 L654.8 110.8 L657.3 137.2 L659.7 110.8 L662.2 110.8 L664.6 137.2 L667.1 110.8 L669.5 137.2 L672.0 110.8 L674.4 110.8 L676.9 110.8 L679.3 137.2 L681.8 110.8 L684.2 110.8 L686.7 110.8 L689.1 110.8 L691.6 110.8 L694.0 110.8 L696.5 137.2 L698.9 110.8 L701.4 110.8 L703.8 110.8 L706.3 110.8 L708.7 110.8 L711.2 137.2 L713.6 110.8 L716.1 110.8 L718.5 110.8 L721.0 110.8 L723.4 137.2 L725.9 110.8 L728.4 110.8 L730.8 124.0 L733.3 110.8 L735.7 110.8 L738.2 110.8 L740.6 137.2 L743.1 110.8 L745.5 137.2 L748.0 137.2 L750.4 137.2 L752.9 110.8 L755.3 137.2 L757.8 137.2 L760.2 110.8 L762.7 137.2 L765.1 110.8 L767.6 110.8" fill="none" stroke="#d95926" stroke-width="2" stroke-linejoin="round" stroke-linecap="round"/>
<text x="776" y="114.8" font-size="11" fill="#c3c2b7">Static IP 3</text>
<text x="776" y="127.8" font-size="11" fill="#c3c2b7">Dynamic IP 3</text>
<line x1="62" y1="190" x2="768" y2="190" stroke="#8a8880" stroke-width="1"/>
<text x="62" y="222" font-size="13" font-weight="600" fill="#ffffff">Steam Datagram Relay Tokyo — round-trip latency (the path CS2 actually uses)</text>
<line x1="62" y1="362.0" x2="768" y2="362.0" stroke="#2e2e2c" stroke-width="1"/>
<text x="54" y="366.0" font-size="11" text-anchor="end" fill="#8a8880">0</text>
<line x1="62" y1="296.0" x2="768" y2="296.0" stroke="#2e2e2c" stroke-width="1"/>
<text x="54" y="300.0" font-size="11" text-anchor="end" fill="#8a8880">25</text>
<line x1="62" y1="230.0" x2="768" y2="230.0" stroke="#2e2e2c" stroke-width="1"/>
<text x="54" y="234.0" font-size="11" text-anchor="end" fill="#8a8880">50</text>
<text x="14" y="296.0" font-size="11" fill="#8a8880" transform="rotate(-90 14 296.0)" text-anchor="middle">ms</text>
<path d="M61.5 274.9 L63.9 274.9 L66.4 274.9 L68.8 274.9 L71.3 272.2 L73.7 272.2 L76.2 274.9 L78.7 272.2 L81.1 272.2 L83.6 274.9 L86.0 272.2 L88.5 274.9 L90.9 274.9 L93.4 272.2 L95.8 274.9 L98.3 274.9 L100.7 274.9 L103.2 273.6 L105.6 274.9 L108.1 274.9 L110.5 274.9 L113.0 274.9 L115.4 274.9 L117.9 272.2 L120.3 272.2 L122.8 272.2 L125.2 274.9 L127.7 272.2 L130.1 272.2 L132.6 274.9 L135.0 274.9 L137.5 272.2 L139.9 272.2 L142.4 274.9 L144.8 273.6 L147.3 274.9 L149.8 273.6 L152.2 274.9 L154.7 274.9 L157.1 274.9 L159.6 274.9 L162.0 272.2 L164.5 272.2 L166.9 274.9 L169.4 273.6 L171.8 274.9 L174.3 272.2 L176.7 274.9 L179.2 274.9 L181.6 274.9 L184.1 274.9 L186.5 272.2 L189.0 274.9 L191.4 272.2 L193.9 272.2 L196.3 274.9 L198.8 272.2 L201.2 274.9 L203.7 274.9 L206.1 272.2 L208.6 274.9 L211.0 274.9 L213.5 272.2 L215.9 272.2 L218.4 272.2 L220.8 274.9 L223.3 272.2 L225.8 272.2 L228.2 272.2 L230.7 273.6 L233.1 272.2 L235.6 274.9 L238.0 274.9 L240.5 273.6 L242.9 274.9 L245.4 274.9 L247.8 272.2 L250.3 274.9 L252.7 272.2 L255.2 272.2 L257.6 272.2 L260.1 274.9 L262.5 273.6 L265.0 269.6 L267.4 272.2 L269.9 274.9 L272.3 272.2 L274.8 272.2 L277.2 272.2 L279.7 272.2 L282.1 274.9 L284.6 272.2 L287.0 274.9 L289.5 272.2 L291.9 272.2 L294.4 274.9 L296.9 273.6 L299.3 274.9 L301.8 274.9 L304.2 274.9 L306.7 272.2 L309.1 274.9 L311.6 272.2 L314.0 274.9 L316.5 274.9 L318.9 274.9 L321.4 274.9 L323.8 274.9 L326.3 274.9 L328.7 274.9 L331.2 274.9 L333.6 274.9 L336.1 272.2 L338.5 274.9 L341.0 274.9 L343.4 274.9 L345.9 274.9 L348.3 274.9 L350.8 274.9 L353.2 274.9 L355.7 274.9 L358.1 274.9 L360.6 272.2 L363.0 274.9 L365.5 273.6 L368.0 274.9 L370.4 274.9 L372.9 274.9 L375.3 274.9 L377.8 274.9 L380.2 274.9 L382.7 274.9 L385.1 274.9 L387.6 274.9 L390.0 274.9 L392.5 274.9 L394.9 274.9 L397.4 274.9 L399.8 274.9 L402.3 274.9 L404.7 274.9 L407.2 274.9 L409.6 274.9 L412.1 274.9 L414.5 272.2 L417.0 274.9 L419.4 274.9 L421.9 274.9 L424.3 272.2 L426.8 272.2 L429.2 273.6 L431.7 272.2 L434.1 273.6 L436.6 274.9 L439.1 274.9 L441.5 272.2 L444.0 274.9 L446.4 274.9 L448.9 274.9 L451.3 274.9 L453.8 274.9 L456.2 274.9 L458.7 274.9 L461.1 273.6 L463.6 274.9 L466.0 274.9 L468.5 272.2 L470.9 273.6 L473.4 272.2 L475.8 274.9 L478.3 272.2 L480.7 273.6 L483.2 274.9 L485.6 273.6 L488.1 274.9 L490.5 274.9 L493.0 274.9 L495.4 274.9 L497.9 273.6 L500.3 272.2 L502.8 272.2 L505.2 272.2 L507.7 274.9 L510.2 272.2 L512.6 272.2 L515.1 274.9 L517.5 274.9 L520.0 274.9 L522.4 273.6 L524.9 274.9 L527.3 273.6 L529.8 274.9 L532.2 272.2 L534.7 274.9 L537.1 274.9 L539.6 272.2 L542.0 273.6 L544.5 274.9 L546.9 274.9 L549.4 272.2 L551.8 274.9 L554.3 274.9 L556.7 274.9 L559.2 273.6 L561.6 272.2 L564.1 273.6 L566.5 274.9 L569.0 272.2 L571.4 274.9 L573.9 274.9 L576.3 274.9 L578.8 272.2 L581.2 272.2 L583.7 272.2 L586.2 274.9 L588.6 274.9 L591.1 272.2 L593.5 274.9 L596.0 272.2 L598.4 274.9 L600.9 272.2 L603.3 272.2 L605.8 274.9 L608.2 274.9 L610.7 274.9 L613.1 274.9 L615.6 272.2 L618.0 274.9 L620.5 272.2 L622.9 274.9 L625.4 272.2 L627.8 274.9 L630.3 274.9 L632.7 272.2 L635.2 274.9 L637.6 272.2 L640.1 272.2 L642.5 273.6 L645.0 272.2 L647.4 272.2 L649.9 274.9 L652.3 274.9 L654.8 272.2 L657.3 274.9 L659.7 274.9 L662.2 274.9 L664.6 273.6 L667.1 274.9 L669.5 274.9 L672.0 272.2 L674.4 272.2 L676.9 274.9 L679.3 273.6 L681.8 272.2 L684.2 274.9 L686.7 274.9 L689.1 274.9 L691.6 274.9 L694.0 273.6 L696.5 274.9 L698.9 274.9 L701.4 274.9 L703.8 274.9 L706.3 274.9 L708.7 272.2 L711.2 274.9 L713.6 274.9 L716.1 274.9 L718.5 274.9 L721.0 272.2 L723.4 274.9 L725.9 274.9 L728.4 274.9 L730.8 272.2 L733.3 274.9 L735.7 274.9 L738.2 274.9 L740.6 273.6 L743.1 274.9 L745.5 274.9 L748.0 274.9 L750.4 274.9 L752.9 274.9 L755.3 274.9 L757.8 274.9 L760.2 274.9 L762.7 274.9 L765.1 274.9 L767.6 274.9" fill="none" stroke="#3987e5" stroke-width="2" stroke-linejoin="round" stroke-linecap="round"/>
<path d="M61.5 274.9 L63.9 274.9 L66.4 274.9 L68.8 274.9 L71.3 276.2 L73.7 274.9 L76.2 274.9 L78.7 274.9 L81.1 274.9 L83.6 274.9 L86.0 274.9 L88.5 274.9 L90.9 274.9 L93.4 274.9 L95.8 274.9 L98.3 274.9 L100.7 274.9 L103.2 274.9 L105.6 274.9 L108.1 274.9 L110.5 274.9 L113.0 274.9 L115.4 274.9 L117.9 274.9 L120.3 274.9 L122.8 274.9 L125.2 274.9 L127.7 274.9 L130.1 274.9 L132.6 274.9 L135.0 274.9 L137.5 274.9 L139.9 274.9 L142.4 274.9 L144.8 274.9 L147.3 274.9 L149.8 274.9 L152.2 274.9 L154.7 274.9 L157.1 274.9 L159.6 274.9 L162.0 274.9 L164.5 274.9 L166.9 274.9 L169.4 274.9 L171.8 274.9 L174.3 274.9 L176.7 274.9 L179.2 274.9 L181.6 274.9 L184.1 274.9 L186.5 274.9 L189.0 274.9 L191.4 274.9 L193.9 274.9 L196.3 274.9 L198.8 274.9 L201.2 273.6 L203.7 274.9 L206.1 274.9 L208.6 274.9 L211.0 274.9 L213.5 274.9 L215.9 274.9 L218.4 274.9 L220.8 272.2 L223.3 274.9 L225.8 274.9 L228.2 274.9 L230.7 274.9 L233.1 274.9 L235.6 274.9 L238.0 274.9 L240.5 272.2 L242.9 274.9 L245.4 274.9 L247.8 274.9 L250.3 274.9 L252.7 274.9 L255.2 274.9 L257.6 274.9 L260.1 274.9 L262.5 273.6 L265.0 269.6 L267.4 274.9 L269.9 274.9 L272.3 274.9 L274.8 272.2 L277.2 273.6 L279.7 272.2 L282.1 274.9 L284.6 274.9 L287.0 274.9 L289.5 274.9 L291.9 274.9 L294.4 274.9 L296.9 274.9 L299.3 274.9 L301.8 274.9 L304.2 272.2 L306.7 274.9 L309.1 274.9 L311.6 274.9 L314.0 274.9 L316.5 274.9 L318.9 274.9 L321.4 274.9 L323.8 274.9 L326.3 274.9 L328.7 274.9 L331.2 274.9 L333.6 274.9 L336.1 274.9 L338.5 274.9 L341.0 274.9 L343.4 274.9 L345.9 274.9 L348.3 274.9 L350.8 274.9 L353.2 274.9 L355.7 274.9 L358.1 274.9 L360.6 272.2 L363.0 274.9 L365.5 274.9 L368.0 274.9 L370.4 274.9 L372.9 274.9 L375.3 274.9 L377.8 274.9 L380.2 274.9 L382.7 274.9 L385.1 274.9 L387.6 274.9 L390.0 274.9 L392.5 274.9 L394.9 274.9 L397.4 274.9 L399.8 274.9 L402.3 274.9 L404.7 274.9 L407.2 277.5 L409.6 277.5 L412.1 276.2 L414.5 274.9 L417.0 277.5 L419.4 274.9 L421.9 274.9 L424.3 274.9 L426.8 274.9 L429.2 274.9 L431.7 274.9 L434.1 274.9 L436.6 274.9 L439.1 272.2 L441.5 274.9 L444.0 274.9 L446.4 274.9 L448.9 274.9 L451.3 274.9 L453.8 274.9 L456.2 274.9 L458.7 274.9 L461.1 274.9 L463.6 274.9 L466.0 274.9 L468.5 274.9 L470.9 274.9 L473.4 274.9 L475.8 274.9 L478.3 274.9 L480.7 274.9 L483.2 274.9 L485.6 274.9 L488.1 274.9 L490.5 274.9 L493.0 274.9 L495.4 274.9 L497.9 274.9 L500.3 274.9 L502.8 274.9 L505.2 274.9 L507.7 274.9 L510.2 274.9 L512.6 274.9 L515.1 274.9 L517.5 274.9 L520.0 274.9 L522.4 274.9 L524.9 274.9 L527.3 274.9 L529.8 272.2 L532.2 274.9 L534.7 274.9 L537.1 274.9 L539.6 274.9 L542.0 274.9 L544.5 274.9 L546.9 274.9 L549.4 273.6 L551.8 274.9 L554.3 274.9 L556.7 274.9 L559.2 274.9 L561.6 274.9 L564.1 274.9 L566.5 274.9 L569.0 274.9 L571.4 274.9 L573.9 274.9 L576.3 274.9 L578.8 274.9 L581.2 274.9 L583.7 274.9 L586.2 274.9 L588.6 274.9 L591.1 274.9 L593.5 274.9 L596.0 274.9 L598.4 274.9 L600.9 274.9 L603.3 274.9 L605.8 274.9 L608.2 274.9 L610.7 274.9 L613.1 274.9 L615.6 274.9 L618.0 274.9 L620.5 274.9 L622.9 274.9 L625.4 274.9 L627.8 274.9 L630.3 274.9 L632.7 274.9 L635.2 274.9 L637.6 274.9 L640.1 274.9 L642.5 274.9 L645.0 274.9 L647.4 274.9 L649.9 274.9 L652.3 274.9 L654.8 272.2 L657.3 274.9 L659.7 274.9 L662.2 274.9 L664.6 274.9 L667.1 274.9 L669.5 274.9 L672.0 274.9 L674.4 274.9 L676.9 274.9 L679.3 274.9 L681.8 274.9 L684.2 274.9 L686.7 274.9 L689.1 274.9 L691.6 274.9 L694.0 274.9 L696.5 274.9 L698.9 274.9 L701.4 274.9 L703.8 274.9 L706.3 274.9 L708.7 274.9 L711.2 274.9 L713.6 274.9 L716.1 274.9 L718.5 274.9 L721.0 274.9 L723.4 274.9 L725.9 274.9 L728.4 274.9 L730.8 274.9 L733.3 272.2 L735.7 274.9 L738.2 274.9 L740.6 274.9 L743.1 274.9 L745.5 274.9 L748.0 274.9 L750.4 274.9 L752.9 274.9 L755.3 274.9 L757.8 277.5 L760.2 274.9 L762.7 274.9 L765.1 274.9 L767.6 274.9" fill="none" stroke="#d95926" stroke-width="2" stroke-linejoin="round" stroke-linecap="round"/>
<text x="776" y="278.9" font-size="11" fill="#c3c2b7">Static IP 33</text>
<text x="776" y="291.9" font-size="11" fill="#c3c2b7">Dynamic IP 33</text>
<line x1="62" y1="362" x2="768" y2="362" stroke="#8a8880" stroke-width="1"/>
<text x="62" y="394" font-size="13" font-weight="600" fill="#ffffff">Share of samples reporting packet loss</text>
<line x1="62" y1="534.0" x2="768" y2="534.0" stroke="#2e2e2c" stroke-width="1"/>
<text x="54" y="538.0" font-size="11" text-anchor="end" fill="#8a8880">0</text>
<line x1="62" y1="468.0" x2="768" y2="468.0" stroke="#2e2e2c" stroke-width="1"/>
<text x="54" y="472.0" font-size="11" text-anchor="end" fill="#8a8880">50</text>
<line x1="62" y1="402.0" x2="768" y2="402.0" stroke="#2e2e2c" stroke-width="1"/>
<text x="54" y="406.0" font-size="11" text-anchor="end" fill="#8a8880">100</text>
<text x="14" y="468.0" font-size="11" fill="#8a8880" transform="rotate(-90 14 468.0)" text-anchor="middle">% of samples</text>
<path d="M61.5 534.0 L63.9 534.0 L66.4 534.0 L68.8 534.0 L71.3 534.0 L73.7 534.0 L76.2 534.0 L78.7 534.0 L81.1 534.0 L83.6 534.0 L86.0 534.0 L88.5 534.0 L90.9 534.0 L93.4 534.0 L95.8 534.0 L98.3 534.0 L100.7 534.0 L103.2 534.0 L105.6 534.0 L108.1 534.0 L110.5 534.0 L113.0 534.0 L115.4 534.0 L117.9 534.0 L120.3 534.0 L122.8 534.0 L125.2 534.0 L127.7 534.0 L130.1 534.0 L132.6 534.0 L135.0 534.0 L137.5 534.0 L139.9 534.0 L142.4 534.0 L144.8 534.0 L147.3 534.0 L149.8 534.0 L152.2 534.0 L154.7 534.0 L157.1 534.0 L159.6 534.0 L162.0 534.0 L164.5 534.0 L166.9 534.0 L169.4 534.0 L171.8 534.0 L174.3 534.0 L176.7 534.0 L179.2 534.0 L181.6 534.0 L184.1 534.0 L186.5 534.0 L189.0 534.0 L191.4 534.0 L193.9 534.0 L196.3 534.0 L198.8 534.0 L201.2 534.0 L203.7 534.0 L206.1 534.0 L208.6 534.0 L211.0 534.0 L213.5 534.0 L215.9 534.0 L218.4 534.0 L220.8 534.0 L223.3 534.0 L225.8 534.0 L228.2 534.0 L230.7 534.0 L233.1 534.0 L235.6 534.0 L238.0 534.0 L240.5 534.0 L242.9 534.0 L245.4 534.0 L247.8 534.0 L250.3 534.0 L252.7 534.0 L255.2 534.0 L257.6 534.0 L260.1 534.0 L262.5 534.0 L265.0 534.0 L267.4 534.0 L269.9 534.0 L272.3 534.0 L274.8 525.2 L277.2 534.0 L279.7 534.0 L282.1 534.0 L284.6 534.0 L287.0 534.0 L289.5 534.0 L291.9 534.0 L294.4 534.0 L296.9 534.0 L299.3 534.0 L301.8 534.0 L304.2 534.0 L306.7 534.0 L309.1 534.0 L311.6 534.0 L314.0 534.0 L316.5 534.0 L318.9 534.0 L321.4 534.0 L323.8 534.0 L326.3 534.0 L328.7 534.0 L331.2 534.0 L333.6 534.0 L336.1 534.0 L338.5 534.0 L341.0 534.0 L343.4 534.0 L345.9 534.0 L348.3 534.0 L350.8 534.0 L353.2 534.0 L355.7 534.0 L358.1 534.0 L360.6 534.0 L363.0 534.0 L365.5 534.0 L368.0 534.0 L370.4 534.0 L372.9 534.0 L375.3 523.8 L377.8 534.0 L380.2 534.0 L382.7 534.0 L385.1 534.0 L387.6 534.0 L390.0 534.0 L392.5 534.0 L394.9 534.0 L397.4 534.0 L399.8 534.0 L402.3 534.0 L404.7 534.0 L407.2 534.0 L409.6 534.0 L412.1 534.0 L414.5 534.0 L417.0 534.0 L419.4 534.0 L421.9 534.0 L424.3 534.0 L426.8 534.0 L429.2 534.0 L431.7 534.0 L434.1 534.0 L436.6 534.0 L439.1 534.0 L441.5 534.0 L444.0 534.0 L446.4 534.0 L448.9 534.0 L451.3 534.0 L453.8 534.0 L456.2 534.0 L458.7 534.0 L461.1 534.0 L463.6 534.0 L466.0 534.0 L468.5 534.0 L470.9 534.0 L473.4 534.0 L475.8 534.0 L478.3 534.0 L480.7 534.0 L483.2 534.0 L485.6 534.0 L488.1 534.0 L490.5 534.0 L493.0 534.0 L495.4 534.0 L497.9 534.0 L500.3 534.0 L502.8 534.0 L505.2 534.0 L507.7 534.0 L510.2 534.0 L512.6 534.0 L515.1 534.0 L517.5 534.0 L520.0 534.0 L522.4 534.0 L524.9 534.0 L527.3 534.0 L529.8 534.0 L532.2 534.0 L534.7 534.0 L537.1 534.0 L539.6 534.0 L542.0 534.0 L544.5 534.0 L546.9 534.0 L549.4 534.0 L551.8 534.0 L554.3 534.0 L556.7 534.0 L559.2 534.0 L561.6 534.0 L564.1 534.0 L566.5 534.0 L569.0 534.0 L571.4 534.0 L573.9 534.0 L576.3 534.0 L578.8 534.0 L581.2 534.0 L583.7 534.0 L586.2 534.0 L588.6 534.0 L591.1 534.0 L593.5 534.0 L596.0 534.0 L598.4 534.0 L600.9 534.0 L603.3 534.0 L605.8 534.0 L608.2 534.0 L610.7 534.0 L613.1 534.0 L615.6 534.0 L618.0 534.0 L620.5 534.0 L622.9 534.0 L625.4 534.0 L627.8 534.0 L630.3 534.0 L632.7 534.0 L635.2 534.0 L637.6 523.0 L640.1 534.0 L642.5 534.0 L645.0 534.0 L647.4 534.0 L649.9 534.0 L652.3 534.0 L654.8 534.0 L657.3 534.0 L659.7 516.4 L662.2 516.4 L664.6 534.0 L667.1 534.0 L669.5 534.0 L672.0 534.0 L674.4 534.0 L676.9 534.0 L679.3 534.0 L681.8 534.0 L684.2 534.0 L686.7 534.0 L689.1 534.0 L691.6 534.0 L694.0 534.0 L696.5 534.0 L698.9 534.0 L701.4 534.0 L703.8 534.0 L706.3 534.0 L708.7 534.0 L711.2 534.0 L713.6 534.0 L716.1 534.0 L718.5 534.0 L721.0 534.0 L723.4 534.0 L725.9 534.0 L728.4 534.0 L730.8 534.0 L733.3 534.0 L735.7 534.0 L738.2 534.0 L740.6 534.0 L743.1 534.0 L745.5 534.0 L748.0 534.0 L750.4 534.0 L752.9 534.0 L755.3 534.0 L757.8 534.0 L760.2 534.0 L762.7 534.0 L765.1 534.0 L767.6 534.0" fill="none" stroke="#3987e5" stroke-width="2" stroke-linejoin="round" stroke-linecap="round"/>
<path d="M61.5 534.0 L63.9 534.0 L66.4 534.0 L68.8 534.0 L71.3 534.0 L73.7 534.0 L76.2 534.0 L78.7 534.0 L81.1 534.0 L83.6 534.0 L86.0 534.0 L88.5 534.0 L90.9 534.0 L93.4 534.0 L95.8 534.0 L98.3 534.0 L100.7 534.0 L103.2 534.0 L105.6 534.0 L108.1 534.0 L110.5 534.0 L113.0 534.0 L115.4 534.0 L117.9 534.0 L120.3 534.0 L122.8 534.0 L125.2 534.0 L127.7 534.0 L130.1 534.0 L132.6 534.0 L135.0 534.0 L137.5 534.0 L139.9 534.0 L142.4 534.0 L144.8 534.0 L147.3 534.0 L149.8 534.0 L152.2 534.0 L154.7 534.0 L157.1 534.0 L159.6 534.0 L162.0 534.0 L164.5 534.0 L166.9 534.0 L169.4 534.0 L171.8 534.0 L174.3 534.0 L176.7 534.0 L179.2 534.0 L181.6 534.0 L184.1 534.0 L186.5 534.0 L189.0 534.0 L191.4 534.0 L193.9 534.0 L196.3 534.0 L198.8 534.0 L201.2 534.0 L203.7 534.0 L206.1 534.0 L208.6 534.0 L211.0 534.0 L213.5 534.0 L215.9 534.0 L218.4 534.0 L220.8 534.0 L223.3 534.0 L225.8 534.0 L228.2 534.0 L230.7 534.0 L233.1 534.0 L235.6 534.0 L238.0 534.0 L240.5 534.0 L242.9 534.0 L245.4 534.0 L247.8 534.0 L250.3 534.0 L252.7 534.0 L255.2 534.0 L257.6 534.0 L260.1 534.0 L262.5 534.0 L265.0 534.0 L267.4 534.0 L269.9 534.0 L272.3 534.0 L274.8 525.2 L277.2 534.0 L279.7 534.0 L282.1 534.0 L284.6 534.0 L287.0 534.0 L289.5 534.0 L291.9 534.0 L294.4 534.0 L296.9 534.0 L299.3 534.0 L301.8 534.0 L304.2 534.0 L306.7 534.0 L309.1 534.0 L311.6 534.0 L314.0 534.0 L316.5 534.0 L318.9 534.0 L321.4 534.0 L323.8 534.0 L326.3 534.0 L328.7 534.0 L331.2 534.0 L333.6 534.0 L336.1 534.0 L338.5 534.0 L341.0 534.0 L343.4 534.0 L345.9 534.0 L348.3 534.0 L350.8 534.0 L353.2 534.0 L355.7 534.0 L358.1 534.0 L360.6 534.0 L363.0 534.0 L365.5 534.0 L368.0 534.0 L370.4 534.0 L372.9 534.0 L375.3 534.0 L377.8 534.0 L380.2 534.0 L382.7 534.0 L385.1 534.0 L387.6 534.0 L390.0 534.0 L392.5 534.0 L394.9 534.0 L397.4 534.0 L399.8 534.0 L402.3 534.0 L404.7 534.0 L407.2 534.0 L409.6 534.0 L412.1 534.0 L414.5 534.0 L417.0 534.0 L419.4 534.0 L421.9 534.0 L424.3 534.0 L426.8 534.0 L429.2 534.0 L431.7 534.0 L434.1 534.0 L436.6 534.0 L439.1 534.0 L441.5 534.0 L444.0 534.0 L446.4 534.0 L448.9 534.0 L451.3 534.0 L453.8 534.0 L456.2 534.0 L458.7 534.0 L461.1 534.0 L463.6 534.0 L466.0 534.0 L468.5 534.0 L470.9 534.0 L473.4 534.0 L475.8 534.0 L478.3 534.0 L480.7 534.0 L483.2 534.0 L485.6 534.0 L488.1 534.0 L490.5 534.0 L493.0 534.0 L495.4 534.0 L497.9 534.0 L500.3 534.0 L502.8 534.0 L505.2 534.0 L507.7 534.0 L510.2 534.0 L512.6 534.0 L515.1 534.0 L517.5 534.0 L520.0 534.0 L522.4 534.0 L524.9 534.0 L527.3 534.0 L529.8 534.0 L532.2 534.0 L534.7 534.0 L537.1 534.0 L539.6 534.0 L542.0 534.0 L544.5 534.0 L546.9 534.0 L549.4 534.0 L551.8 534.0 L554.3 534.0 L556.7 534.0 L559.2 534.0 L561.6 534.0 L564.1 534.0 L566.5 534.0 L569.0 534.0 L571.4 534.0 L573.9 534.0 L576.3 534.0 L578.8 534.0 L581.2 534.0 L583.7 534.0 L586.2 534.0 L588.6 534.0 L591.1 534.0 L593.5 534.0 L596.0 534.0 L598.4 534.0 L600.9 534.0 L603.3 534.0 L605.8 534.0 L608.2 534.0 L610.7 534.0 L613.1 534.0 L615.6 534.0 L618.0 534.0 L620.5 534.0 L622.9 534.0 L625.4 534.0 L627.8 534.0 L630.3 534.0 L632.7 534.0 L635.2 534.0 L637.6 523.0 L640.1 534.0 L642.5 534.0 L645.0 534.0 L647.4 534.0 L649.9 534.0 L652.3 534.0 L654.8 534.0 L657.3 534.0 L659.7 516.4 L662.2 516.4 L664.6 534.0 L667.1 534.0 L669.5 534.0 L672.0 534.0 L674.4 534.0 L676.9 534.0 L679.3 534.0 L681.8 534.0 L684.2 534.0 L686.7 534.0 L689.1 534.0 L691.6 534.0 L694.0 534.0 L696.5 534.0 L698.9 534.0 L701.4 534.0 L703.8 534.0 L706.3 534.0 L708.7 534.0 L711.2 534.0 L713.6 534.0 L716.1 534.0 L718.5 534.0 L721.0 534.0 L723.4 534.0 L725.9 534.0 L728.4 534.0 L730.8 534.0 L733.3 534.0 L735.7 534.0 L738.2 534.0 L740.6 534.0 L743.1 534.0 L745.5 534.0 L748.0 534.0 L750.4 534.0 L752.9 534.0 L755.3 534.0 L757.8 534.0 L760.2 534.0 L762.7 534.0 L765.1 534.0 L767.6 534.0" fill="none" stroke="#d95926" stroke-width="2" stroke-linejoin="round" stroke-linecap="round"/>
<text x="776" y="525.0" font-size="11" fill="#c3c2b7">Static IP 0</text>
<text x="776" y="538.0" font-size="11" fill="#c3c2b7">Dynamic IP 0</text>
<line x1="62" y1="534" x2="768" y2="534" stroke="#8a8880" stroke-width="1"/>
<text x="62.0" y="552" font-size="11" text-anchor="middle" fill="#8a8880">09-07 08:12</text>
<text x="179.7" y="552" font-size="11" text-anchor="middle" fill="#8a8880">09-07 16:12</text>
<text x="297.3" y="552" font-size="11" text-anchor="middle" fill="#8a8880">09-08 00:11</text>
<text x="415.0" y="552" font-size="11" text-anchor="middle" fill="#8a8880">09-08 08:11</text>
<text x="532.7" y="552" font-size="11" text-anchor="middle" fill="#8a8880">09-08 16:11</text>
<text x="650.3" y="552" font-size="11" text-anchor="middle" fill="#8a8880">09-09 00:11</text>
<text x="768.0" y="552" font-size="11" text-anchor="middle" fill="#8a8880">09-09 08:11</text>
<text x="62" y="572" font-size="11" fill="#8a8880">10-minute medians · both paths measured from one host at the same instant · times are UTC+8</text>
</svg>