<svg xmlns="http://www.w3.org/2000/svg" width="900" height="586" viewBox="0 0 900 586" font-family="ui-sans-serif,-apple-system,Segoe UI,Helvetica,Arial,sans-serif">
<rect width="900" height="586" fill="#1a1a19"/>
<rect x="62" y="10" width="10" height="10" rx="2" fill="#3987e5"/>
<text x="78" y="19" font-size="12" fill="#c3c2b7">Static IP</text>
<rect x="252" y="10" width="10" height="10" rx="2" fill="#d95926"/>
<text x="268" y="19" font-size="12" fill="#c3c2b7">Dynamic IP</text>
<text x="62" y="50" font-size="13" font-weight="600" fill="#ffffff">Cloudflare 1.1.1.1 — round-trip latency</text>
<line x1="62" y1="190.0" x2="768" y2="190.0" stroke="#2e2e2c" stroke-width="1"/>
<text x="54" y="194.0" font-size="11" text-anchor="end" fill="#8a8880">0</text>
<line x1="62" y1="124.0" x2="768" y2="124.0" stroke="#2e2e2c" stroke-width="1"/>
<text x="54" y="128.0" font-size="11" text-anchor="end" fill="#8a8880">250</text>
<line x1="62" y1="58.0" x2="768" y2="58.0" stroke="#2e2e2c" stroke-width="1"/>
<text x="54" y="62.0" font-size="11" text-anchor="end" fill="#8a8880">500</text>
<text x="14" y="124.0" font-size="11" fill="#8a8880" transform="rotate(-90 14 124.0)" text-anchor="middle">ms</text>
<path d="M60.0 189.2 L62.4 189.2 L64.9 189.2 L67.3 189.2 L69.8 189.2 L72.2 189.2 L74.7 189.2 L77.1 189.2 L79.6 189.2 L82.0 189.2 L84.5 189.2 L86.9 189.2 L89.4 189.2 L91.9 189.2 L94.3 189.2 L96.8 189.2 L99.2 189.2 L101.7 189.2 L104.1 189.2 L106.6 189.2 L109.0 189.2 L111.5 189.2 L113.9 189.2 L116.4 189.2 L118.8 189.2 L121.3 189.2 L123.7 189.2 L126.2 189.2 L128.6 189.2 L131.1 189.2 L133.5 189.2 L136.0 189.2 L138.4 189.2 L140.9 189.2 L143.3 189.2 L145.8 189.2 L148.2 189.2 L150.7 189.2 L153.1 189.2 L155.6 189.2 L158.0 189.2 L160.5 189.2 L163.0 189.2 L165.4 189.2 L167.9 189.2 L170.3 189.2 L172.8 189.2 L175.2 189.2 L177.7 189.2 L180.1 189.2 L182.6 189.2 L185.0 189.2 L187.5 189.2 L189.9 189.2 L192.4 189.2 L194.8 189.2 L197.3 189.2 L199.7 189.2 L202.2 189.2 L204.6 189.2 L207.1 189.2 L209.5 189.2 L212.0 189.2 L214.4 189.2 L216.9 189.2 L219.3 189.2 L221.8 189.2 L224.2 189.2 L226.7 189.2 L229.1 189.2 L231.6 189.2 L234.1 189.2 L236.5 189.2 L239.0 189.2 L241.4 189.2 L243.9 189.2 L246.3 189.2 L248.8 189.2 L251.2 189.2 L253.7 189.2 L256.1 189.2 L258.6 189.2 L261.0 189.2 L263.5 189.2 L265.9 189.2 L268.4 189.2 L270.8 189.2 L273.3 189.2 L275.7 189.2 L278.2 189.2 L280.6 189.2 L283.1 189.2 L285.5 189.2 L288.0 189.2 L290.4 189.2 L292.9 189.2 L295.3 189.2 L297.8 189.2 L300.2 189.2 L302.7 189.2 L305.2 189.2 L307.6 189.2 L310.1 189.2 L312.5 189.2 L315.0 189.2 L317.4 189.2 L319.9 189.2 L322.3 189.2 L324.8 189.2 L327.2 189.2 L329.7 189.2 L332.1 189.2 L334.6 189.2 L337.0 189.2 L339.5 189.2 L341.9 189.2 L344.4 189.2 L346.8 189.2 L349.3 189.2 L351.7 189.2 L354.2 189.2 L356.6 189.2 L359.1 189.2 L361.5 189.2 L364.0 189.2 L366.4 189.2 L368.9 189.2 L371.4 189.2 L373.8 189.2 L376.3 189.2 L378.7 189.2 L381.2 189.2 L383.6 189.2 L386.1 189.2 L388.5 189.2 L391.0 189.2 L393.4 189.2 L395.9 189.2 L398.3 189.2 L400.8 189.2 L403.2 189.2 L405.7 189.2 L408.1 189.2 L410.6 189.2 L413.0 189.2 L415.5 189.2 L417.9 189.2 L420.4 189.2 L422.8 189.2 L425.3 189.2 L427.7 189.2 L430.2 189.2 L432.6 189.2 L435.1 189.2 L437.5 189.2 L440.0 189.2 L442.5 189.2 L444.9 189.2 L447.4 189.2 L449.8 189.2 L452.3 189.2 L454.7 189.2 L457.2 189.2 L459.6 189.2 L462.1 189.2 L464.5 189.2 L467.0 189.2 L469.4 189.2 L471.9 189.2 L474.3 189.2 L476.8 189.2 L479.2 189.2 L481.7 189.2 L484.1 189.2 L486.6 189.2 L489.0 189.2 L491.5 189.2 L493.9 189.2 L496.4 189.2 L498.8 189.2 L501.3 189.2 L503.7 189.2 L506.2 189.2 L508.6 189.2 L511.1 189.2 L513.6 189.2 L516.0 189.2 L518.5 189.2 L520.9 189.2 L523.4 189.2 L525.8 189.2 L528.3 189.2 L530.7 189.2 L533.2 189.2 L535.6 189.2 L538.1 189.2 L540.5 189.2 L543.0 189.2 L545.4 189.2 L547.9 189.2 L550.3 189.2 L552.8 189.2 L555.2 189.2 L557.7 189.2 L560.1 189.2 L562.6 189.2 L565.0 189.2 L567.5 189.2 L569.9 189.2 L572.4 189.2 L574.8 189.2 L577.3 189.2 L579.7 189.2 L582.2 189.2 L584.7 189.2 L587.1 189.2 L589.6 189.2 L592.0 189.2 L594.5 189.2 L596.9 189.2 L599.4 189.2 L601.8 189.2 L604.3 189.2 L606.7 189.2 L609.2 189.2 L611.6 189.2 L614.1 189.2 L616.5 189.2 L619.0 189.2 L621.4 189.2 L623.9 189.2 L626.3 189.2 L628.8 189.2 L631.2 189.2 L633.7 189.2 L636.1 189.2 L638.6 189.2 L641.0 189.2 L643.5 189.2 L645.9 189.2 L648.4 189.2 L650.9 189.2 L653.3 189.2 L655.8 189.2 L658.2 189.2 L660.7 189.2 L663.1 189.2 L665.6 189.2 L668.0 189.2 L670.5 189.2 L672.9 189.2 L675.4 189.2 L677.8 189.2 L680.3 189.2 L682.7 189.2 L685.2 189.2 L687.6 189.2 L690.1 189.2 L692.5 189.2 L695.0 189.2 L697.4 189.2 L699.9 189.2 L702.3 189.2 L704.8 189.2 L707.2 189.2 L709.7 189.2 L712.1 189.2 L714.6 189.2 L717.0 189.2 L719.5 189.2 L722.0 189.2 L724.4 189.2 L726.9 189.2 L729.3 189.2 L731.8 189.2 L734.2 189.2 L736.7 189.2 L739.1 189.2 L741.6 189.2 L744.0 189.2 L746.5 189.2 L748.9 189.2 L751.4 189.2 L753.8 189.2 L756.3 189.2 L758.7 189.2 L761.2 189.2 L763.6 189.2 L766.1 189.2" fill="none" stroke="#3987e5" stroke-width="2" stroke-linejoin="round" stroke-linecap="round"/>
<path d="M60.0 183.4 L62.4 183.4 L64.9 183.4 L67.3 183.4 L69.8 183.7 L72.2 183.4 L74.7 183.4 L77.1 183.7 L79.6 183.7 L82.0 183.4 L84.5 183.4 L86.9 183.4 L89.4 183.7 L91.9 183.7 L94.3 183.7 L96.8 183.4 L99.2 183.4 L101.7 183.7 L104.1 183.4 L106.6 183.4 L109.0 183.5 L111.5 183.7 L113.9 183.4 L116.4 183.4 L118.8 183.4 L121.3 183.4 L123.7 183.7 L126.2 183.4 L128.6 183.7 L131.1 183.7 L133.5 183.4 L136.0 183.4 L138.4 183.5 L140.9 183.7 L143.3 183.7 L145.8 183.5 L148.2 183.4 L150.7 183.4 L153.1 183.5 L155.6 183.4 L158.0 183.7 L160.5 183.4 L163.0 156.5 L165.4 140.1 L167.9 134.8 L170.3 134.6 L172.8 136.1 L175.2 135.5 L177.7 133.9 L180.1 133.2 L182.6 131.4 L185.0 131.4 L187.5 131.4 L189.9 133.2 L192.4 131.7 L194.8 131.4 L197.3 131.4 L199.7 131.4 L202.2 131.4 L204.6 131.4 L207.1 131.5 L209.5 131.4 L212.0 131.4 L214.4 131.4 L216.9 131.4 L219.3 131.7 L221.8 130.1 L224.2 131.7 L226.7 131.7 L229.1 131.7 L231.6 131.7 L234.1 131.7 L236.5 133.5 L239.0 132.2 L241.4 132.4 L243.9 134.0 L246.3 134.3 L248.8 137.5 L251.2 152.0 L253.7 147.9 L256.1 145.9 L258.6 162.3 L261.0 183.7 L263.5 183.7 L265.9 183.7 L268.4 183.7 L270.8 183.7 L273.3 183.7 L275.7 183.7 L278.2 183.7 L280.6 183.7 L283.1 183.7 L285.5 183.7 L288.0 183.7 L290.4 183.7 L292.9 183.7 L295.3 183.7 L297.8 183.7 L300.2 183.7 L302.7 183.7 L305.2 183.7 L307.6 183.7 L310.1 183.7 L312.5 183.7 L315.0 183.7 L317.4 183.7 L319.9 183.7 L322.3 183.7 L324.8 183.7 L327.2 183.7 L329.7 183.7 L332.1 183.7 L334.6 183.7 L337.0 183.7 L339.5 183.7 L341.9 183.7 L344.4 183.7 L346.8 183.7 L349.3 183.7 L351.7 183.7 L354.2 183.7 L356.6 183.7 L359.1 183.7 L361.5 183.7 L364.0 183.7 L366.4 183.7 L368.9 183.7 L371.4 183.7 L373.8 183.7 L376.3 183.7 L378.7 183.7 L381.2 183.7 L383.6 183.7 L386.1 183.7 L388.5 183.7 L391.0 183.7 L393.4 183.7 L395.9 183.7 L398.3 183.7 L400.8 183.7 L403.2 183.7 L405.7 183.7 L408.1 183.7 L410.6 183.7 L413.0 183.7 L415.5 183.7 L417.9 183.7 L420.4 183.7 L422.8 183.7 L425.3 183.7 L427.7 183.7 L430.2 183.7 L432.6 183.7 L435.1 183.7 L437.5 183.7 L440.0 183.7 L442.5 183.7 L444.9 183.7 L447.4 183.7 L449.8 183.7 L452.3 183.7 L454.7 183.7 L457.2 183.7 L459.6 183.7 L462.1 183.7 L464.5 183.7 L467.0 183.7 L469.4 183.7 L471.9 183.7 L474.3 183.7 L476.8 183.7 L479.2 183.7 L481.7 183.7 L484.1 183.7 L486.6 183.7 L489.0 183.7 L491.5 183.7 L493.9 183.7 L496.4 183.7 L498.8 183.7 L501.3 183.7 L503.7 183.7 L506.2 183.5 L508.6 183.7 L511.1 183.7 L513.6 183.7 L516.0 183.7 L518.5 183.7 L520.9 183.7 L523.4 183.7 L525.8 183.7 L528.3 183.7 L530.7 183.7 L533.2 183.7 L535.6 183.7 L538.1 183.7 L540.5 183.7 L543.0 183.7 L545.4 183.7 L547.9 183.7 L550.3 183.7 L552.8 183.3 L555.2 183.3 L557.7 182.9 L560.1 155.2 L562.6 167.3 L565.0 159.0 L567.5 167.3 L569.9 153.3 L572.4 150.1 L574.8 151.7 L577.3 153.0 L579.7 152.8 L582.2 152.0 L584.7 154.5 L587.1 154.9 L589.6 155.3 L592.0 156.5 L594.5 168.4 L596.9 159.0 L599.4 161.2 L601.8 174.7 L604.3 161.8 L606.7 179.3 L609.2 183.4 L611.6 183.7 L614.1 183.7 L616.5 183.7 L619.0 183.7 L621.4 183.7 L623.9 183.7 L626.3 183.7 L628.8 183.7 L631.2 183.7 L633.7 183.7 L636.1 183.7 L638.6 183.7 L641.0 183.7 L643.5 183.7 L645.9 183.7 L648.4 183.7 L650.9 183.7 L653.3 183.7 L655.8 183.7 L658.2 183.7 L660.7 183.7 L663.1 183.7 L665.6 183.7 L668.0 183.7 L670.5 183.7 L672.9 183.7 L675.4 183.7 L677.8 183.7 L680.3 183.7 L682.7 183.7 L685.2 183.7 L687.6 183.7 L690.1 183.7 L692.5 183.7 L695.0 183.7 L697.4 183.7 L699.9 183.7 L702.3 183.7 L704.8 183.7 L707.2 183.7 L709.7 183.7 L712.1 183.7 L714.6 183.7 L717.0 183.7 L719.5 183.7 L722.0 183.7 L724.4 183.7 L726.9 183.7 L729.3 183.7 L731.8 183.7 L734.2 183.7 L736.7 183.7 L739.1 183.7 L741.6 183.7 L744.0 183.7 L746.5 183.7 L748.9 183.7 L751.4 183.7 L753.8 183.7 L756.3 183.7 L758.7 183.7 L761.2 183.7 L763.6 183.7 L766.1 189.2" fill="none" stroke="#d95926" stroke-width="2" stroke-linejoin="round" stroke-linecap="round"/>
<text x="776" y="181.0" font-size="11" fill="#c3c2b7">Static IP 3</text>
<text x="776" y="194.0" font-size="11" fill="#c3c2b7">Dynamic IP 3</text>
<line x1="62" y1="190" x2="768" y2="190" stroke="#8a8880" stroke-width="1"/>
<text x="62" y="222" font-size="13" font-weight="600" fill="#ffffff">Steam Datagram Relay Tokyo — round-trip latency (the path CS2 actually uses)</text>
<line x1="62" y1="362.0" x2="768" y2="362.0" stroke="#2e2e2c" stroke-width="1"/>
<text x="54" y="366.0" font-size="11" text-anchor="end" fill="#8a8880">0</text>
<line x1="62" y1="296.0" x2="768" y2="296.0" stroke="#2e2e2c" stroke-width="1"/>
<text x="54" y="300.0" font-size="11" text-anchor="end" fill="#8a8880">50</text>
<line x1="62" y1="230.0" x2="768" y2="230.0" stroke="#2e2e2c" stroke-width="1"/>
<text x="54" y="234.0" font-size="11" text-anchor="end" fill="#8a8880">100</text>
<text x="14" y="296.0" font-size="11" fill="#8a8880" transform="rotate(-90 14 296.0)" text-anchor="middle">ms</text>
<path d="M60.0 318.4 L62.4 317.1 L64.9 318.4 L67.3 318.4 L69.8 318.4 L72.2 317.8 L74.7 317.1 L77.1 318.4 L79.6 317.1 L82.0 318.4 L84.5 317.1 L86.9 317.1 L89.4 318.4 L91.9 317.1 L94.3 318.4 L96.8 317.8 L99.2 317.1 L101.7 318.4 L104.1 318.4 L106.6 318.4 L109.0 317.1 L111.5 317.1 L113.9 317.8 L116.4 318.4 L118.8 318.4 L121.3 317.1 L123.7 317.1 L126.2 318.4 L128.6 318.4 L131.1 317.1 L133.5 317.1 L136.0 318.4 L138.4 317.8 L140.9 317.1 L143.3 318.4 L145.8 318.4 L148.2 317.1 L150.7 317.1 L153.1 317.8 L155.6 317.1 L158.0 317.1 L160.5 317.8 L163.0 317.1 L165.4 315.8 L167.9 317.1 L170.3 317.1 L172.8 317.1 L175.2 316.5 L177.7 317.1 L180.1 317.1 L182.6 317.1 L185.0 318.4 L187.5 317.1 L189.9 318.4 L192.4 317.8 L194.8 318.4 L197.3 317.1 L199.7 317.1 L202.2 317.1 L204.6 317.1 L207.1 317.1 L209.5 317.8 L212.0 315.8 L214.4 311.8 L216.9 300.0 L219.3 303.9 L221.8 292.0 L224.2 261.7 L226.7 317.1 L229.1 313.2 L231.6 315.8 L234.1 259.0 L236.5 286.8 L239.0 318.4 L241.4 317.1 L243.9 317.1 L246.3 317.1 L248.8 317.8 L251.2 318.4 L253.7 317.1 L256.1 318.4 L258.6 317.1 L261.0 317.1 L263.5 317.1 L265.9 317.1 L268.4 317.1 L270.8 318.4 L273.3 317.1 L275.7 318.4 L278.2 318.4 L280.6 318.4 L283.1 318.4 L285.5 317.1 L288.0 317.1 L290.4 317.1 L292.9 318.4 L295.3 318.4 L297.8 318.4 L300.2 317.1 L302.7 317.1 L305.2 317.1 L307.6 317.1 L310.1 318.4 L312.5 318.4 L315.0 318.4 L317.4 317.1 L319.9 318.4 L322.3 317.1 L324.8 318.4 L327.2 318.4 L329.7 318.4 L332.1 318.4 L334.6 317.1 L337.0 318.4 L339.5 317.8 L341.9 318.4 L344.4 317.1 L346.8 318.4 L349.3 317.1 L351.7 318.4 L354.2 318.4 L356.6 318.4 L359.1 317.1 L361.5 318.4 L364.0 318.4 L366.4 317.1 L368.9 318.4 L371.4 318.4 L373.8 318.4 L376.3 317.1 L378.7 318.4 L381.2 317.8 L383.6 318.4 L386.1 317.1 L388.5 317.1 L391.0 317.1 L393.4 318.4 L395.9 318.4 L398.3 318.4 L400.8 317.8 L403.2 317.1 L405.7 318.4 L408.1 318.4 L410.6 317.1 L413.0 318.4 L415.5 318.4 L417.9 318.4 L420.4 318.4 L422.8 318.4 L425.3 318.4 L427.7 317.8 L430.2 317.1 L432.6 317.1 L435.1 318.4 L437.5 318.4 L440.0 318.4 L442.5 318.4 L444.9 317.1 L447.4 317.1 L449.8 317.1 L452.3 317.8 L454.7 317.1 L457.2 318.4 L459.6 317.1 L462.1 317.1 L464.5 318.4 L467.0 317.1 L469.4 317.1 L471.9 318.4 L474.3 317.8 L476.8 317.1 L479.2 317.1 L481.7 318.4 L484.1 317.8 L486.6 317.1 L489.0 317.1 L491.5 317.1 L493.9 317.1 L496.4 317.1 L498.8 317.1 L501.3 317.1 L503.7 318.4 L506.2 317.1 L508.6 317.1 L511.1 318.4 L513.6 317.1 L516.0 318.4 L518.5 318.4 L520.9 317.1 L523.4 318.4 L525.8 317.1 L528.3 318.4 L530.7 317.1 L533.2 318.4 L535.6 318.4 L538.1 318.4 L540.5 318.4 L543.0 318.4 L545.4 317.1 L547.9 317.1 L550.3 317.1 L552.8 318.4 L555.2 317.1 L557.7 317.1 L560.1 317.1 L562.6 317.1 L565.0 317.8 L567.5 317.8 L569.9 317.1 L572.4 317.8 L574.8 317.1 L577.3 317.1 L579.7 313.2 L582.2 317.1 L584.7 317.1 L587.1 317.1 L589.6 313.8 L592.0 317.1 L594.5 318.4 L596.9 317.1 L599.4 317.8 L601.8 317.1 L604.3 317.1 L606.7 318.4 L609.2 318.4 L611.6 317.1 L614.1 318.4 L616.5 317.1 L619.0 317.1 L621.4 317.8 L623.9 318.4 L626.3 318.4 L628.8 317.1 L631.2 318.4 L633.7 318.4 L636.1 318.4 L638.6 317.1 L641.0 317.1 L643.5 318.4 L645.9 317.1 L648.4 317.1 L650.9 317.1 L653.3 318.4 L655.8 318.4 L658.2 318.4 L660.7 318.4 L663.1 318.4 L665.6 318.4 L668.0 317.8 L670.5 317.1 L672.9 317.1 L675.4 318.4 L677.8 318.4 L680.3 317.1 L682.7 317.1 L685.2 317.8 L687.6 317.1 L690.1 318.4 L692.5 318.4 L695.0 317.1 L697.4 317.1 L699.9 318.4 L702.3 317.1 L704.8 318.4 L707.2 317.1 L709.7 317.1 L712.1 318.4 L714.6 318.4 L717.0 318.4 L719.5 318.4 L722.0 318.4 L724.4 318.4 L726.9 318.4 L729.3 318.4 L731.8 317.1 L734.2 318.4 L736.7 317.1 L739.1 318.4 L741.6 318.4 L744.0 318.4 L746.5 318.4 L748.9 318.4 L751.4 318.4 L753.8 317.1 L756.3 318.4 L758.7 317.1 L761.2 318.4 L763.6 317.1 L766.1 317.1" fill="none" stroke="#3987e5" stroke-width="2" stroke-linejoin="round" stroke-linecap="round"/>
<path d="M60.0 318.4 L62.4 318.4 L64.9 318.4 L67.3 318.4 L69.8 319.8 L72.2 318.4 L74.7 318.4 L77.1 318.4 L79.6 318.4 L82.0 318.4 L84.5 318.4 L86.9 318.4 L89.4 318.4 L91.9 318.4 L94.3 318.4 L96.8 318.4 L99.2 318.4 L101.7 318.4 L104.1 318.4 L106.6 318.4 L109.0 318.4 L111.5 318.4 L113.9 318.4 L116.4 318.4 L118.8 318.4 L121.3 318.4 L123.7 318.4 L126.2 318.4 L128.6 318.4 L131.1 318.4 L133.5 318.4 L136.0 318.4 L138.4 318.4 L140.9 318.4 L143.3 318.4 L145.8 318.4 L148.2 318.4 L150.7 318.4 L153.1 318.4 L155.6 318.4 L158.0 318.4 L160.5 318.4 L163.0 318.4 L165.4 317.1 L167.9 318.4 L170.3 318.4 L172.8 318.4 L175.2 318.4 L177.7 318.4 L180.1 318.4 L182.6 318.4 L185.0 318.4 L187.5 318.4 L189.9 318.4 L192.4 318.4 L194.8 318.4 L197.3 318.4 L199.7 318.4 L202.2 318.4 L204.6 318.4 L207.1 318.4 L209.5 318.4 L212.0 317.1 L214.4 311.8 L216.9 293.4 L219.3 309.9 L221.8 286.8 L224.2 263.0 L226.7 318.4 L229.1 317.1 L231.6 315.8 L234.1 259.7 L236.5 284.1 L239.0 318.4 L241.4 318.4 L243.9 318.4 L246.3 317.1 L248.8 317.1 L251.2 317.1 L253.7 318.4 L256.1 318.4 L258.6 317.1 L261.0 318.4 L263.5 318.4 L265.9 318.4 L268.4 318.4 L270.8 318.4 L273.3 318.4 L275.7 318.4 L278.2 318.4 L280.6 318.4 L283.1 318.4 L285.5 318.4 L288.0 317.1 L290.4 318.4 L292.9 318.4 L295.3 318.4 L297.8 318.4 L300.2 318.4 L302.7 318.4 L305.2 318.4 L307.6 318.4 L310.1 318.4 L312.5 318.4 L315.0 317.1 L317.4 318.4 L319.9 318.4 L322.3 318.4 L324.8 318.4 L327.2 318.4 L329.7 318.4 L332.1 317.1 L334.6 318.4 L337.0 318.4 L339.5 318.4 L341.9 318.4 L344.4 318.4 L346.8 318.4 L349.3 319.8 L351.7 318.4 L354.2 318.4 L356.6 318.4 L359.1 317.1 L361.5 318.4 L364.0 318.4 L366.4 318.4 L368.9 318.4 L371.4 318.4 L373.8 318.4 L376.3 317.1 L378.7 318.4 L381.2 318.4 L383.6 318.4 L386.1 318.4 L388.5 318.4 L391.0 318.4 L393.4 318.4 L395.9 318.4 L398.3 318.4 L400.8 318.4 L403.2 318.4 L405.7 317.8 L408.1 317.8 L410.6 318.4 L413.0 318.4 L415.5 318.4 L417.9 318.4 L420.4 318.4 L422.8 318.4 L425.3 318.4 L427.7 318.4 L430.2 318.4 L432.6 318.4 L435.1 318.4 L437.5 317.1 L440.0 318.4 L442.5 318.4 L444.9 318.4 L447.4 317.1 L449.8 318.4 L452.3 318.4 L454.7 318.4 L457.2 318.4 L459.6 318.4 L462.1 318.4 L464.5 318.4 L467.0 319.8 L469.4 318.4 L471.9 318.4 L474.3 318.4 L476.8 318.4 L479.2 318.4 L481.7 318.4 L484.1 318.4 L486.6 318.4 L489.0 318.4 L491.5 318.4 L493.9 318.4 L496.4 318.4 L498.8 318.4 L501.3 318.4 L503.7 318.4 L506.2 318.4 L508.6 318.4 L511.1 318.4 L513.6 319.8 L516.0 318.4 L518.5 318.4 L520.9 318.4 L523.4 318.4 L525.8 318.4 L528.3 318.4 L530.7 318.4 L533.2 318.4 L535.6 318.4 L538.1 318.4 L540.5 318.4 L543.0 318.4 L545.4 318.4 L547.9 318.4 L550.3 318.4 L552.8 318.4 L555.2 318.4 L557.7 318.4 L560.1 317.1 L562.6 318.4 L565.0 317.8 L567.5 318.4 L569.9 317.8 L572.4 318.4 L574.8 318.4 L577.3 317.1 L579.7 313.2 L582.2 318.4 L584.7 318.4 L587.1 318.4 L589.6 313.8 L592.0 318.4 L594.5 318.4 L596.9 318.4 L599.4 318.4 L601.8 318.4 L604.3 318.4 L606.7 318.4 L609.2 318.4 L611.6 318.4 L614.1 318.4 L616.5 317.1 L619.0 318.4 L621.4 318.4 L623.9 318.4 L626.3 318.4 L628.8 318.4 L631.2 318.4 L633.7 318.4 L636.1 318.4 L638.6 318.4 L641.0 318.4 L643.5 318.4 L645.9 318.4 L648.4 318.4 L650.9 318.4 L653.3 318.4 L655.8 318.4 L658.2 318.4 L660.7 318.4 L663.1 318.4 L665.6 318.4 L668.0 318.4 L670.5 318.4 L672.9 317.1 L675.4 318.4 L677.8 318.4 L680.3 318.4 L682.7 318.4 L685.2 318.4 L687.6 318.4 L690.1 318.4 L692.5 318.4 L695.0 318.4 L697.4 318.4 L699.9 318.4 L702.3 318.4 L704.8 318.4 L707.2 318.4 L709.7 318.4 L712.1 318.4 L714.6 318.4 L717.0 318.4 L719.5 318.4 L722.0 318.4 L724.4 318.4 L726.9 318.4 L729.3 318.4 L731.8 318.4 L734.2 318.4 L736.7 318.4 L739.1 318.4 L741.6 318.4 L744.0 318.4 L746.5 318.4 L748.9 318.4 L751.4 318.4 L753.8 318.4 L756.3 318.4 L758.7 318.4 L761.2 318.4 L763.6 318.4 L766.1 318.4" fill="none" stroke="#d95926" stroke-width="2" stroke-linejoin="round" stroke-linecap="round"/>
<text x="776" y="321.1" font-size="11" fill="#c3c2b7">Static IP 34</text>
<text x="776" y="334.1" font-size="11" fill="#c3c2b7">Dynamic IP 33</text>
<line x1="62" y1="362" x2="768" y2="362" stroke="#8a8880" stroke-width="1"/>
<text x="62" y="394" font-size="13" font-weight="600" fill="#ffffff">Share of samples reporting packet loss</text>
<line x1="62" y1="534.0" x2="768" y2="534.0" stroke="#2e2e2c" stroke-width="1"/>
<text x="54" y="538.0" font-size="11" text-anchor="end" fill="#8a8880">0</text>
<line x1="62" y1="468.0" x2="768" y2="468.0" stroke="#2e2e2c" stroke-width="1"/>
<text x="54" y="472.0" font-size="11" text-anchor="end" fill="#8a8880">50</text>
<line x1="62" y1="402.0" x2="768" y2="402.0" stroke="#2e2e2c" stroke-width="1"/>
<text x="54" y="406.0" font-size="11" text-anchor="end" fill="#8a8880">100</text>
<text x="14" y="468.0" font-size="11" fill="#8a8880" transform="rotate(-90 14 468.0)" text-anchor="middle">% of samples</text>
<path d="M60.0 534.0 L62.4 534.0 L64.9 534.0 L67.3 534.0 L69.8 534.0 L72.2 534.0 L74.7 534.0 L77.1 534.0 L79.6 534.0 L82.0 534.0 L84.5 534.0 L86.9 534.0 L89.4 534.0 L91.9 534.0 L94.3 534.0 L96.8 534.0 L99.2 534.0 L101.7 534.0 L104.1 534.0 L106.6 534.0 L109.0 534.0 L111.5 534.0 L113.9 534.0 L116.4 534.0 L118.8 534.0 L121.3 534.0 L123.7 534.0 L126.2 534.0 L128.6 534.0 L131.1 534.0 L133.5 534.0 L136.0 534.0 L138.4 534.0 L140.9 534.0 L143.3 534.0 L145.8 534.0 L148.2 534.0 L150.7 534.0 L153.1 534.0 L155.6 534.0 L158.0 534.0 L160.5 534.0 L163.0 534.0 L165.4 534.0 L167.9 534.0 L170.3 534.0 L172.8 534.0 L175.2 534.0 L177.7 534.0 L180.1 534.0 L182.6 534.0 L185.0 534.0 L187.5 534.0 L189.9 534.0 L192.4 534.0 L194.8 534.0 L197.3 534.0 L199.7 534.0 L202.2 534.0 L204.6 534.0 L207.1 534.0 L209.5 534.0 L212.0 534.0 L214.4 534.0 L216.9 534.0 L219.3 534.0 L221.8 534.0 L224.2 534.0 L226.7 534.0 L229.1 534.0 L231.6 534.0 L234.1 534.0 L236.5 534.0 L239.0 534.0 L241.4 534.0 L243.9 534.0 L246.3 534.0 L248.8 534.0 L251.2 534.0 L253.7 534.0 L256.1 534.0 L258.6 534.0 L261.0 534.0 L263.5 534.0 L265.9 534.0 L268.4 534.0 L270.8 534.0 L273.3 534.0 L275.7 534.0 L278.2 534.0 L280.6 534.0 L283.1 534.0 L285.5 534.0 L288.0 534.0 L290.4 534.0 L292.9 534.0 L295.3 534.0 L297.8 534.0 L300.2 534.0 L302.7 534.0 L305.2 534.0 L307.6 534.0 L310.1 534.0 L312.5 534.0 L315.0 534.0 L317.4 534.0 L319.9 534.0 L322.3 534.0 L324.8 534.0 L327.2 534.0 L329.7 534.0 L332.1 534.0 L334.6 534.0 L337.0 534.0 L339.5 534.0 L341.9 534.0 L344.4 512.0 L346.8 534.0 L349.3 534.0 L351.7 534.0 L354.2 534.0 L356.6 534.0 L359.1 534.0 L361.5 534.0 L364.0 534.0 L366.4 534.0 L368.9 534.0 L371.4 534.0 L373.8 534.0 L376.3 534.0 L378.7 534.0 L381.2 534.0 L383.6 534.0 L386.1 534.0 L388.5 534.0 L391.0 534.0 L393.4 534.0 L395.9 534.0 L398.3 534.0 L400.8 534.0 L403.2 534.0 L405.7 534.0 L408.1 534.0 L410.6 534.0 L413.0 534.0 L415.5 534.0 L417.9 534.0 L420.4 534.0 L422.8 534.0 L425.3 534.0 L427.7 534.0 L430.2 534.0 L432.6 534.0 L435.1 534.0 L437.5 534.0 L440.0 534.0 L442.5 534.0 L444.9 534.0 L447.4 534.0 L449.8 534.0 L452.3 534.0 L454.7 534.0 L457.2 534.0 L459.6 534.0 L462.1 534.0 L464.5 534.0 L467.0 534.0 L469.4 534.0 L471.9 534.0 L474.3 534.0 L476.8 534.0 L479.2 534.0 L481.7 534.0 L484.1 534.0 L486.6 534.0 L489.0 534.0 L491.5 534.0 L493.9 534.0 L496.4 534.0 L498.8 534.0 L501.3 534.0 L503.7 534.0 L506.2 534.0 L508.6 534.0 L511.1 534.0 L513.6 534.0 L516.0 534.0 L518.5 534.0 L520.9 534.0 L523.4 534.0 L525.8 534.0 L528.3 534.0 L530.7 534.0 L533.2 534.0 L535.6 534.0 L538.1 534.0 L540.5 534.0 L543.0 534.0 L545.4 534.0 L547.9 534.0 L550.3 534.0 L552.8 534.0 L555.2 534.0 L557.7 534.0 L560.1 534.0 L562.6 534.0 L565.0 534.0 L567.5 534.0 L569.9 534.0 L572.4 534.0 L574.8 534.0 L577.3 534.0 L579.7 534.0 L582.2 534.0 L584.7 520.8 L587.1 534.0 L589.6 534.0 L592.0 534.0 L594.5 534.0 L596.9 534.0 L599.4 534.0 L601.8 534.0 L604.3 534.0 L606.7 534.0 L609.2 534.0 L611.6 534.0 L614.1 534.0 L616.5 534.0 L619.0 534.0 L621.4 534.0 L623.9 534.0 L626.3 534.0 L628.8 534.0 L631.2 534.0 L633.7 534.0 L636.1 534.0 L638.6 534.0 L641.0 534.0 L643.5 534.0 L645.9 534.0 L648.4 534.0 L650.9 534.0 L653.3 534.0 L655.8 534.0 L658.2 534.0 L660.7 534.0 L663.1 534.0 L665.6 534.0 L668.0 534.0 L670.5 534.0 L672.9 534.0 L675.4 534.0 L677.8 534.0 L680.3 534.0 L682.7 534.0 L685.2 534.0 L687.6 534.0 L690.1 534.0 L692.5 534.0 L695.0 534.0 L697.4 534.0 L699.9 534.0 L702.3 534.0 L704.8 534.0 L707.2 534.0 L709.7 534.0 L712.1 534.0 L714.6 534.0 L717.0 534.0 L719.5 534.0 L722.0 534.0 L724.4 534.0 L726.9 534.0 L729.3 534.0 L731.8 534.0 L734.2 534.0 L736.7 534.0 L739.1 534.0 L741.6 534.0 L744.0 534.0 L746.5 534.0 L748.9 534.0 L751.4 534.0 L753.8 534.0 L756.3 534.0 L758.7 534.0 L761.2 534.0 L763.6 534.0 L766.1 534.0" fill="none" stroke="#3987e5" stroke-width="2" stroke-linejoin="round" stroke-linecap="round"/>
<path d="M60.0 534.0 L62.4 534.0 L64.9 534.0 L67.3 534.0 L69.8 534.0 L72.2 534.0 L74.7 534.0 L77.1 534.0 L79.6 534.0 L82.0 534.0 L84.5 534.0 L86.9 534.0 L89.4 534.0 L91.9 534.0 L94.3 534.0 L96.8 534.0 L99.2 534.0 L101.7 534.0 L104.1 534.0 L106.6 534.0 L109.0 534.0 L111.5 534.0 L113.9 534.0 L116.4 525.2 L118.8 534.0 L121.3 534.0 L123.7 534.0 L126.2 534.0 L128.6 534.0 L131.1 534.0 L133.5 534.0 L136.0 534.0 L138.4 534.0 L140.9 534.0 L143.3 534.0 L145.8 534.0 L148.2 534.0 L150.7 534.0 L153.1 534.0 L155.6 534.0 L158.0 534.0 L160.5 534.0 L163.0 534.0 L165.4 534.0 L167.9 534.0 L170.3 515.1 L172.8 534.0 L175.2 534.0 L177.7 507.6 L180.1 534.0 L182.6 481.2 L185.0 507.6 L187.5 504.7 L189.9 490.0 L192.4 494.4 L194.8 519.3 L197.3 481.2 L199.7 519.3 L202.2 490.0 L204.6 468.0 L207.1 468.0 L209.5 454.8 L212.0 481.2 L214.4 439.7 L216.9 501.0 L219.3 484.5 L221.8 475.3 L224.2 460.7 L226.7 446.0 L229.1 477.4 L231.6 446.0 L234.1 458.6 L236.5 484.5 L239.0 481.2 L241.4 490.0 L243.9 460.7 L246.3 490.0 L248.8 520.8 L251.2 519.3 L253.7 520.8 L256.1 534.0 L258.6 534.0 L261.0 534.0 L263.5 534.0 L265.9 534.0 L268.4 534.0 L270.8 534.0 L273.3 534.0 L275.7 534.0 L278.2 534.0 L280.6 534.0 L283.1 534.0 L285.5 534.0 L288.0 534.0 L290.4 534.0 L292.9 534.0 L295.3 534.0 L297.8 534.0 L300.2 534.0 L302.7 534.0 L305.2 534.0 L307.6 534.0 L310.1 534.0 L312.5 534.0 L315.0 534.0 L317.4 534.0 L319.9 534.0 L322.3 534.0 L324.8 534.0 L327.2 534.0 L329.7 534.0 L332.1 534.0 L334.6 534.0 L337.0 534.0 L339.5 534.0 L341.9 534.0 L344.4 512.0 L346.8 534.0 L349.3 534.0 L351.7 534.0 L354.2 534.0 L356.6 534.0 L359.1 534.0 L361.5 534.0 L364.0 534.0 L366.4 534.0 L368.9 534.0 L371.4 534.0 L373.8 534.0 L376.3 534.0 L378.7 534.0 L381.2 534.0 L383.6 534.0 L386.1 534.0 L388.5 534.0 L391.0 534.0 L393.4 534.0 L395.9 534.0 L398.3 534.0 L400.8 534.0 L403.2 534.0 L405.7 534.0 L408.1 534.0 L410.6 534.0 L413.0 534.0 L415.5 534.0 L417.9 534.0 L420.4 534.0 L422.8 534.0 L425.3 534.0 L427.7 534.0 L430.2 534.0 L432.6 534.0 L435.1 534.0 L437.5 534.0 L440.0 534.0 L442.5 534.0 L444.9 534.0 L447.4 534.0 L449.8 534.0 L452.3 534.0 L454.7 534.0 L457.2 534.0 L459.6 534.0 L462.1 534.0 L464.5 534.0 L467.0 534.0 L469.4 534.0 L471.9 534.0 L474.3 534.0 L476.8 534.0 L479.2 534.0 L481.7 534.0 L484.1 534.0 L486.6 534.0 L489.0 534.0 L491.5 534.0 L493.9 534.0 L496.4 534.0 L498.8 534.0 L501.3 534.0 L503.7 534.0 L506.2 534.0 L508.6 534.0 L511.1 534.0 L513.6 534.0 L516.0 534.0 L518.5 534.0 L520.9 534.0 L523.4 534.0 L525.8 534.0 L528.3 534.0 L530.7 534.0 L533.2 534.0 L535.6 534.0 L538.1 534.0 L540.5 534.0 L543.0 534.0 L545.4 534.0 L547.9 534.0 L550.3 534.0 L552.8 534.0 L555.2 534.0 L557.7 534.0 L560.1 534.0 L562.6 534.0 L565.0 534.0 L567.5 534.0 L569.9 534.0 L572.4 507.6 L574.8 520.8 L577.3 490.0 L579.7 507.6 L582.2 504.7 L584.7 520.8 L587.1 534.0 L589.6 507.6 L592.0 534.0 L594.5 507.6 L596.9 520.8 L599.4 534.0 L601.8 534.0 L604.3 522.0 L606.7 534.0 L609.2 534.0 L611.6 534.0 L614.1 534.0 L616.5 534.0 L619.0 534.0 L621.4 534.0 L623.9 534.0 L626.3 534.0 L628.8 534.0 L631.2 534.0 L633.7 534.0 L636.1 534.0 L638.6 534.0 L641.0 534.0 L643.5 534.0 L645.9 534.0 L648.4 534.0 L650.9 534.0 L653.3 534.0 L655.8 534.0 L658.2 534.0 L660.7 534.0 L663.1 534.0 L665.6 534.0 L668.0 534.0 L670.5 534.0 L672.9 534.0 L675.4 534.0 L677.8 534.0 L680.3 534.0 L682.7 534.0 L685.2 534.0 L687.6 534.0 L690.1 534.0 L692.5 534.0 L695.0 534.0 L697.4 534.0 L699.9 534.0 L702.3 534.0 L704.8 534.0 L707.2 534.0 L709.7 534.0 L712.1 534.0 L714.6 534.0 L717.0 534.0 L719.5 534.0 L722.0 534.0 L724.4 534.0 L726.9 534.0 L729.3 534.0 L731.8 534.0 L734.2 534.0 L736.7 534.0 L739.1 534.0 L741.6 534.0 L744.0 534.0 L746.5 534.0 L748.9 534.0 L751.4 534.0 L753.8 534.0 L756.3 534.0 L758.7 534.0 L761.2 534.0 L763.6 534.0 L766.1 522.0" fill="none" stroke="#d95926" stroke-width="2" stroke-linejoin="round" stroke-linecap="round"/>
<text x="776" y="525.0" font-size="11" fill="#c3c2b7">Dynamic IP 9</text>
<text x="776" y="538.0" font-size="11" fill="#c3c2b7">Static IP 0</text>
<line x1="62" y1="534" x2="768" y2="534" stroke="#8a8880" stroke-width="1"/>
<text x="62.0" y="552" font-size="11" text-anchor="middle" fill="#8a8880">09-04 11:08</text>
<text x="179.7" y="552" font-size="11" text-anchor="middle" fill="#8a8880">09-04 19:08</text>
<text x="297.3" y="552" font-size="11" text-anchor="middle" fill="#8a8880">09-05 03:08</text>
<text x="415.0" y="552" font-size="11" text-anchor="middle" fill="#8a8880">09-05 11:08</text>
<text x="532.7" y="552" font-size="11" text-anchor="middle" fill="#8a8880">09-05 19:07</text>
<text x="650.3" y="552" font-size="11" text-anchor="middle" fill="#8a8880">09-06 03:07</text>
<text x="768.0" y="552" font-size="11" text-anchor="middle" fill="#8a8880">09-06 11:07</text>
<text x="62" y="572" font-size="11" fill="#8a8880">10-minute medians · both paths measured from one host at the same instant · times are UTC+8</text>
</svg>