<svg xmlns="http://www.w3.org/2000/svg" width="880" height="638" viewBox="0 0 880 638" font-family="ui-sans-serif,-apple-system,Segoe UI,Roboto,Helvetica,Arial,sans-serif">
<rect width="880" height="638" fill="#fcfcfb"/>
<circle cx="63.0" cy="20" r="5" fill="#2a78d6"/>
<text x="73.0" y="24" font-size="12" fill="#52514e">Static IP (固定制)</text>
<circle cx="207.0" cy="20" r="5" fill="#eb6834"/>
<text x="217.0" y="24" font-size="12" fill="#52514e">Dynamic IP (浮動制)</text>
<text x="58" y="49.0" font-size="13" font-weight="600" fill="#0b0b0b">遊戲路徑 p95 · SDR relay RTT（ms）</text>
<line x1="58" y1="210.0" x2="784.0" y2="210.0" stroke="#e6e5e0" stroke-width="1"/>
<text x="50" y="214.0" font-size="11" text-anchor="end" fill="#8a8880">0</text>
<line x1="58" y1="135.0" x2="784.0" y2="135.0" stroke="#e6e5e0" stroke-width="1"/>
<text x="50" y="139.0" font-size="11" text-anchor="end" fill="#8a8880">40</text>
<line x1="58" y1="60.0" x2="784.0" y2="60.0" stroke="#e6e5e0" stroke-width="1"/>
<text x="50" y="64.0" font-size="11" text-anchor="end" fill="#8a8880">80</text>
<polyline fill="none" stroke="#2a78d6" stroke-width="2" stroke-linejoin="round" points="58.0,146.2 300.0,103.1 542.0,144.4 784.0,123.8"/>
<circle cx="58.0" cy="146.2" r="4.5" fill="#2a78d6" stroke="#fcfcfb" stroke-width="2"/>
<circle cx="300.0" cy="103.1" r="4.5" fill="#2a78d6" stroke="#fcfcfb" stroke-width="2"/>
<circle cx="542.0" cy="144.4" r="4.5" fill="#2a78d6" stroke="#fcfcfb" stroke-width="2"/>
<circle cx="784.0" cy="123.8" r="4.5" fill="#2a78d6" stroke="#fcfcfb" stroke-width="2"/>
<polyline fill="none" stroke="#eb6834" stroke-width="2" stroke-linejoin="round" points="58.0,135.0 300.0,101.2 542.0,142.5 784.0,127.5"/>
<circle cx="58.0" cy="135.0" r="4.5" fill="#eb6834" stroke="#fcfcfb" stroke-width="2"/>
<circle cx="300.0" cy="101.2" r="4.5" fill="#eb6834" stroke="#fcfcfb" stroke-width="2"/>
<circle cx="542.0" cy="142.5" r="4.5" fill="#eb6834" stroke="#fcfcfb" stroke-width="2"/>
<circle cx="784.0" cy="127.5" r="4.5" fill="#eb6834" stroke="#fcfcfb" stroke-width="2"/>
<text x="792.0" y="123.1" font-size="12" font-weight="600" fill="#2a78d6">46 ms</text>
<text x="792.0" y="136.1" font-size="12" font-weight="600" fill="#eb6834">44 ms</text>
<text x="58" y="233.0" font-size="13" font-weight="600" fill="#0b0b0b">Cloudflare 1.1.1.1 中位數（ms）</text>
<line x1="58" y1="394.0" x2="784.0" y2="394.0" stroke="#e6e5e0" stroke-width="1"/>
<text x="50" y="398.0" font-size="11" text-anchor="end" fill="#8a8880">0</text>
<line x1="58" y1="319.0" x2="784.0" y2="319.0" stroke="#e6e5e0" stroke-width="1"/>
<text x="50" y="323.0" font-size="11" text-anchor="end" fill="#8a8880">15</text>
<line x1="58" y1="244.0" x2="784.0" y2="244.0" stroke="#e6e5e0" stroke-width="1"/>
<text x="50" y="248.0" font-size="11" text-anchor="end" fill="#8a8880">30</text>
<polyline fill="none" stroke="#2a78d6" stroke-width="2" stroke-linejoin="round" points="58.0,379.0 300.0,379.0 542.0,379.0 784.0,359.0"/>
<circle cx="58.0" cy="379.0" r="4.5" fill="#2a78d6" stroke="#fcfcfb" stroke-width="2"/>
<circle cx="300.0" cy="379.0" r="4.5" fill="#2a78d6" stroke="#fcfcfb" stroke-width="2"/>
<circle cx="542.0" cy="379.0" r="4.5" fill="#2a78d6" stroke="#fcfcfb" stroke-width="2"/>
<circle cx="784.0" cy="359.0" r="4.5" fill="#2a78d6" stroke="#fcfcfb" stroke-width="2"/>
<polyline fill="none" stroke="#eb6834" stroke-width="2" stroke-linejoin="round" points="58.0,269.0 300.0,274.0 542.0,379.0 784.0,359.0"/>
<circle cx="58.0" cy="269.0" r="4.5" fill="#eb6834" stroke="#fcfcfb" stroke-width="2"/>
<circle cx="300.0" cy="274.0" r="4.5" fill="#eb6834" stroke="#fcfcfb" stroke-width="2"/>
<circle cx="542.0" cy="379.0" r="4.5" fill="#eb6834" stroke="#fcfcfb" stroke-width="2"/>
<circle cx="784.0" cy="359.0" r="4.5" fill="#eb6834" stroke="#fcfcfb" stroke-width="2"/>
<text x="792.0" y="356.5" font-size="12" font-weight="600" fill="#2a78d6">7 ms</text>
<text x="792.0" y="369.5" font-size="12" font-weight="600" fill="#eb6834">7 ms</text>
<text x="58" y="417.0" font-size="13" font-weight="600" fill="#0b0b0b">遊戲路徑抖動 · 每輪 20 pps 突發的 mdev 中位數（ms）</text>
<line x1="58" y1="578.0" x2="784.0" y2="578.0" stroke="#e6e5e0" stroke-width="1"/>
<text x="50" y="582.0" font-size="11" text-anchor="end" fill="#8a8880">0</text>
<line x1="58" y1="503.0" x2="784.0" y2="503.0" stroke="#e6e5e0" stroke-width="1"/>
<text x="50" y="507.0" font-size="11" text-anchor="end" fill="#8a8880">2</text>
<line x1="58" y1="428.0" x2="784.0" y2="428.0" stroke="#e6e5e0" stroke-width="1"/>
<text x="50" y="432.0" font-size="11" text-anchor="end" fill="#8a8880">4</text>
<polyline fill="none" stroke="#2a78d6" stroke-width="2" stroke-linejoin="round" points="542.0,561.9 784.0,444.5"/>
<circle cx="542.0" cy="561.9" r="4.5" fill="#2a78d6" stroke="#fcfcfb" stroke-width="2"/>
<circle cx="784.0" cy="444.5" r="4.5" fill="#2a78d6" stroke="#fcfcfb" stroke-width="2"/>
<polyline fill="none" stroke="#eb6834" stroke-width="2" stroke-linejoin="round" points="542.0,551.8 784.0,437.8"/>
<circle cx="542.0" cy="551.8" r="4.5" fill="#eb6834" stroke="#fcfcfb" stroke-width="2"/>
<circle cx="784.0" cy="437.8" r="4.5" fill="#eb6834" stroke="#fcfcfb" stroke-width="2"/>
<text x="792.0" y="438.6" font-size="12" font-weight="600" fill="#eb6834">3.74 ms</text>
<text x="792.0" y="451.6" font-size="12" font-weight="600" fill="#2a78d6">3.56 ms</text>
<text x="58.0" y="596.0" font-size="11" text-anchor="middle" fill="#8a8880">08/26</text>
<text x="300.0" y="596.0" font-size="11" text-anchor="middle" fill="#8a8880">08/27</text>
<text x="542.0" y="596.0" font-size="11" text-anchor="middle" fill="#8a8880">08/28</text>
<text x="784.0" y="596.0" font-size="11" text-anchor="middle" fill="#8a8880">08/29</text>
<text x="58" y="630" font-size="11" fill="#8a8880">每日彙整 · 最後一天仍在累積中 · 產生時間 2026-08-29 01:03</text>
</svg>