<svg xmlns="http://www.w3.org/2000/svg" width="880" height="638" viewBox="0 0 880 638" font-family="ui-sans-serif,-apple-system,Segoe UI,Roboto,Helvetica,Arial,sans-serif">
<rect width="880" height="638" fill="#fcfcfb"/>
<circle cx="63.0" cy="20" r="5" fill="#2a78d6"/>
<text x="73.0" y="24" font-size="12" fill="#52514e">Static IP (固定制)</text>
<circle cx="207.0" cy="20" r="5" fill="#eb6834"/>
<text x="217.0" y="24" font-size="12" fill="#52514e">Dynamic IP (浮動制)</text>
<text x="58" y="49.0" font-size="13" font-weight="600" fill="#0b0b0b">遊戲路徑 p95 · SDR relay RTT（ms）</text>
<line x1="58" y1="210.0" x2="784.0" y2="210.0" stroke="#e6e5e0" stroke-width="1"/>
<text x="50" y="214.0" font-size="11" text-anchor="end" fill="#8a8880">0</text>
<line x1="58" y1="135.0" x2="784.0" y2="135.0" stroke="#e6e5e0" stroke-width="1"/>
<text x="50" y="139.0" font-size="11" text-anchor="end" fill="#8a8880">40</text>
<line x1="58" y1="60.0" x2="784.0" y2="60.0" stroke="#e6e5e0" stroke-width="1"/>
<text x="50" y="64.0" font-size="11" text-anchor="end" fill="#8a8880">80</text>
<polyline fill="none" stroke="#2a78d6" stroke-width="2" stroke-linejoin="round" points="58.0,146.2 91.0,103.1 124.0,144.4 157.0,144.4 190.0,144.4 223.0,146.2 256.0,146.2 289.0,146.2 322.0,144.4 355.0,144.4 388.0,146.2 421.0,146.2 454.0,146.2 487.0,146.2 520.0,144.4 553.0,146.2 586.0,144.4 619.0,146.2 652.0,146.2 685.0,146.2 718.0,146.2 751.0,146.2 784.0,146.2"/>
<circle cx="58.0" cy="146.2" r="4.5" fill="#2a78d6" stroke="#fcfcfb" stroke-width="2"/>
<circle cx="91.0" cy="103.1" r="4.5" fill="#2a78d6" stroke="#fcfcfb" stroke-width="2"/>
<circle cx="124.0" cy="144.4" r="4.5" fill="#2a78d6" stroke="#fcfcfb" stroke-width="2"/>
<circle cx="157.0" cy="144.4" r="4.5" fill="#2a78d6" stroke="#fcfcfb" stroke-width="2"/>
<circle cx="190.0" cy="144.4" r="4.5" fill="#2a78d6" stroke="#fcfcfb" stroke-width="2"/>
<circle cx="223.0" cy="146.2" r="4.5" fill="#2a78d6" stroke="#fcfcfb" stroke-width="2"/>
<circle cx="256.0" cy="146.2" r="4.5" fill="#2a78d6" stroke="#fcfcfb" stroke-width="2"/>
<circle cx="289.0" cy="146.2" r="4.5" fill="#2a78d6" stroke="#fcfcfb" stroke-width="2"/>
<circle cx="322.0" cy="144.4" r="4.5" fill="#2a78d6" stroke="#fcfcfb" stroke-width="2"/>
<circle cx="355.0" cy="144.4" r="4.5" fill="#2a78d6" stroke="#fcfcfb" stroke-width="2"/>
<circle cx="388.0" cy="146.2" r="4.5" fill="#2a78d6" stroke="#fcfcfb" stroke-width="2"/>
<circle cx="421.0" cy="146.2" r="4.5" fill="#2a78d6" stroke="#fcfcfb" stroke-width="2"/>
<circle cx="454.0" cy="146.2" r="4.5" fill="#2a78d6" stroke="#fcfcfb" stroke-width="2"/>
<circle cx="487.0" cy="146.2" r="4.5" fill="#2a78d6" stroke="#fcfcfb" stroke-width="2"/>
<circle cx="520.0" cy="144.4" r="4.5" fill="#2a78d6" stroke="#fcfcfb" stroke-width="2"/>
<circle cx="553.0" cy="146.2" r="4.5" fill="#2a78d6" stroke="#fcfcfb" stroke-width="2"/>
<circle cx="586.0" cy="144.4" r="4.5" fill="#2a78d6" stroke="#fcfcfb" stroke-width="2"/>
<circle cx="619.0" cy="146.2" r="4.5" fill="#2a78d6" stroke="#fcfcfb" stroke-width="2"/>
<circle cx="652.0" cy="146.2" r="4.5" fill="#2a78d6" stroke="#fcfcfb" stroke-width="2"/>
<circle cx="685.0" cy="146.2" r="4.5" fill="#2a78d6" stroke="#fcfcfb" stroke-width="2"/>
<circle cx="718.0" cy="146.2" r="4.5" fill="#2a78d6" stroke="#fcfcfb" stroke-width="2"/>
<circle cx="751.0" cy="146.2" r="4.5" fill="#2a78d6" stroke="#fcfcfb" stroke-width="2"/>
<circle cx="784.0" cy="146.2" r="4.5" fill="#2a78d6" stroke="#fcfcfb" stroke-width="2"/>
<polyline fill="none" stroke="#eb6834" stroke-width="2" stroke-linejoin="round" points="58.0,135.0 91.0,101.2 124.0,142.5 157.0,140.6 190.0,140.6 223.0,146.2 256.0,146.2 289.0,144.4 322.0,142.5 355.0,146.2 388.0,142.5 421.0,144.4 454.0,146.2 487.0,146.2 520.0,146.2 553.0,144.4 586.0,144.4 619.0,142.5 652.0,142.5 685.0,146.2 718.0,142.5 751.0,146.2 784.0,146.2"/>
<circle cx="58.0" cy="135.0" r="4.5" fill="#eb6834" stroke="#fcfcfb" stroke-width="2"/>
<circle cx="91.0" cy="101.2" r="4.5" fill="#eb6834" stroke="#fcfcfb" stroke-width="2"/>
<circle cx="124.0" cy="142.5" r="4.5" fill="#eb6834" stroke="#fcfcfb" stroke-width="2"/>
<circle cx="157.0" cy="140.6" r="4.5" fill="#eb6834" stroke="#fcfcfb" stroke-width="2"/>
<circle cx="190.0" cy="140.6" r="4.5" fill="#eb6834" stroke="#fcfcfb" stroke-width="2"/>
<circle cx="223.0" cy="146.2" r="4.5" fill="#eb6834" stroke="#fcfcfb" stroke-width="2"/>
<circle cx="256.0" cy="146.2" r="4.5" fill="#eb6834" stroke="#fcfcfb" stroke-width="2"/>
<circle cx="289.0" cy="144.4" r="4.5" fill="#eb6834" stroke="#fcfcfb" stroke-width="2"/>
<circle cx="322.0" cy="142.5" r="4.5" fill="#eb6834" stroke="#fcfcfb" stroke-width="2"/>
<circle cx="355.0" cy="146.2" r="4.5" fill="#eb6834" stroke="#fcfcfb" stroke-width="2"/>
<circle cx="388.0" cy="142.5" r="4.5" fill="#eb6834" stroke="#fcfcfb" stroke-width="2"/>
<circle cx="421.0" cy="144.4" r="4.5" fill="#eb6834" stroke="#fcfcfb" stroke-width="2"/>
<circle cx="454.0" cy="146.2" r="4.5" fill="#eb6834" stroke="#fcfcfb" stroke-width="2"/>
<circle cx="487.0" cy="146.2" r="4.5" fill="#eb6834" stroke="#fcfcfb" stroke-width="2"/>
<circle cx="520.0" cy="146.2" r="4.5" fill="#eb6834" stroke="#fcfcfb" stroke-width="2"/>
<circle cx="553.0" cy="144.4" r="4.5" fill="#eb6834" stroke="#fcfcfb" stroke-width="2"/>
<circle cx="586.0" cy="144.4" r="4.5" fill="#eb6834" stroke="#fcfcfb" stroke-width="2"/>
<circle cx="619.0" cy="142.5" r="4.5" fill="#eb6834" stroke="#fcfcfb" stroke-width="2"/>
<circle cx="652.0" cy="142.5" r="4.5" fill="#eb6834" stroke="#fcfcfb" stroke-width="2"/>
<circle cx="685.0" cy="146.2" r="4.5" fill="#eb6834" stroke="#fcfcfb" stroke-width="2"/>
<circle cx="718.0" cy="142.5" r="4.5" fill="#eb6834" stroke="#fcfcfb" stroke-width="2"/>
<circle cx="751.0" cy="146.2" r="4.5" fill="#eb6834" stroke="#fcfcfb" stroke-width="2"/>
<circle cx="784.0" cy="146.2" r="4.5" fill="#eb6834" stroke="#fcfcfb" stroke-width="2"/>
<text x="792.0" y="143.8" font-size="12" font-weight="600" fill="#2a78d6">34 ms</text>
<text x="792.0" y="156.8" font-size="12" font-weight="600" fill="#eb6834">34 ms</text>
<text x="58" y="233.0" font-size="13" font-weight="600" fill="#0b0b0b">Cloudflare 1.1.1.1 中位數（ms）</text>
<line x1="58" y1="394.0" x2="784.0" y2="394.0" stroke="#e6e5e0" stroke-width="1"/>
<text x="50" y="398.0" font-size="11" text-anchor="end" fill="#8a8880">0</text>
<line x1="58" y1="319.0" x2="784.0" y2="319.0" stroke="#e6e5e0" stroke-width="1"/>
<text x="50" y="323.0" font-size="11" text-anchor="end" fill="#8a8880">15</text>
<line x1="58" y1="244.0" x2="784.0" y2="244.0" stroke="#e6e5e0" stroke-width="1"/>
<text x="50" y="248.0" font-size="11" text-anchor="end" fill="#8a8880">30</text>
<polyline fill="none" stroke="#2a78d6" stroke-width="2" stroke-linejoin="round" points="58.0,379.0 91.0,379.0 124.0,379.0 157.0,379.0 190.0,379.0 223.0,379.0 256.0,379.0 289.0,379.0 322.0,379.0 355.0,379.0 388.0,379.0 421.0,379.0 454.0,379.0 487.0,379.0 520.0,379.0 553.0,379.0 586.0,379.0 619.0,379.0 652.0,379.0 685.0,379.0 718.0,379.0 751.0,379.0 784.0,379.0"/>
<circle cx="58.0" cy="379.0" r="4.5" fill="#2a78d6" stroke="#fcfcfb" stroke-width="2"/>
<circle cx="91.0" cy="379.0" r="4.5" fill="#2a78d6" stroke="#fcfcfb" stroke-width="2"/>
<circle cx="124.0" cy="379.0" r="4.5" fill="#2a78d6" stroke="#fcfcfb" stroke-width="2"/>
<circle cx="157.0" cy="379.0" r="4.5" fill="#2a78d6" stroke="#fcfcfb" stroke-width="2"/>
<circle cx="190.0" cy="379.0" r="4.5" fill="#2a78d6" stroke="#fcfcfb" stroke-width="2"/>
<circle cx="223.0" cy="379.0" r="4.5" fill="#2a78d6" stroke="#fcfcfb" stroke-width="2"/>
<circle cx="256.0" cy="379.0" r="4.5" fill="#2a78d6" stroke="#fcfcfb" stroke-width="2"/>
<circle cx="289.0" cy="379.0" r="4.5" fill="#2a78d6" stroke="#fcfcfb" stroke-width="2"/>
<circle cx="322.0" cy="379.0" r="4.5" fill="#2a78d6" stroke="#fcfcfb" stroke-width="2"/>
<circle cx="355.0" cy="379.0" r="4.5" fill="#2a78d6" stroke="#fcfcfb" stroke-width="2"/>
<circle cx="388.0" cy="379.0" r="4.5" fill="#2a78d6" stroke="#fcfcfb" stroke-width="2"/>
<circle cx="421.0" cy="379.0" r="4.5" fill="#2a78d6" stroke="#fcfcfb" stroke-width="2"/>
<circle cx="454.0" cy="379.0" r="4.5" fill="#2a78d6" stroke="#fcfcfb" stroke-width="2"/>
<circle cx="487.0" cy="379.0" r="4.5" fill="#2a78d6" stroke="#fcfcfb" stroke-width="2"/>
<circle cx="520.0" cy="379.0" r="4.5" fill="#2a78d6" stroke="#fcfcfb" stroke-width="2"/>
<circle cx="553.0" cy="379.0" r="4.5" fill="#2a78d6" stroke="#fcfcfb" stroke-width="2"/>
<circle cx="586.0" cy="379.0" r="4.5" fill="#2a78d6" stroke="#fcfcfb" stroke-width="2"/>
<circle cx="619.0" cy="379.0" r="4.5" fill="#2a78d6" stroke="#fcfcfb" stroke-width="2"/>
<circle cx="652.0" cy="379.0" r="4.5" fill="#2a78d6" stroke="#fcfcfb" stroke-width="2"/>
<circle cx="685.0" cy="379.0" r="4.5" fill="#2a78d6" stroke="#fcfcfb" stroke-width="2"/>
<circle cx="718.0" cy="379.0" r="4.5" fill="#2a78d6" stroke="#fcfcfb" stroke-width="2"/>
<circle cx="751.0" cy="379.0" r="4.5" fill="#2a78d6" stroke="#fcfcfb" stroke-width="2"/>
<circle cx="784.0" cy="379.0" r="4.5" fill="#2a78d6" stroke="#fcfcfb" stroke-width="2"/>
<polyline fill="none" stroke="#eb6834" stroke-width="2" stroke-linejoin="round" points="58.0,269.0 91.0,274.0 124.0,379.0 157.0,379.0 190.0,274.0 223.0,269.0 256.0,269.0 289.0,269.0 322.0,269.0 355.0,269.0 388.0,274.0 421.0,379.0 454.0,379.0 487.0,379.0 520.0,379.0 553.0,379.0 586.0,379.0 619.0,379.0 652.0,379.0 685.0,379.0 718.0,379.0 751.0,379.0 784.0,274.0"/>
<circle cx="58.0" cy="269.0" r="4.5" fill="#eb6834" stroke="#fcfcfb" stroke-width="2"/>
<circle cx="91.0" cy="274.0" r="4.5" fill="#eb6834" stroke="#fcfcfb" stroke-width="2"/>
<circle cx="124.0" cy="379.0" r="4.5" fill="#eb6834" stroke="#fcfcfb" stroke-width="2"/>
<circle cx="157.0" cy="379.0" r="4.5" fill="#eb6834" stroke="#fcfcfb" stroke-width="2"/>
<circle cx="190.0" cy="274.0" r="4.5" fill="#eb6834" stroke="#fcfcfb" stroke-width="2"/>
<circle cx="223.0" cy="269.0" r="4.5" fill="#eb6834" stroke="#fcfcfb" stroke-width="2"/>
<circle cx="256.0" cy="269.0" r="4.5" fill="#eb6834" stroke="#fcfcfb" stroke-width="2"/>
<circle cx="289.0" cy="269.0" r="4.5" fill="#eb6834" stroke="#fcfcfb" stroke-width="2"/>
<circle cx="322.0" cy="269.0" r="4.5" fill="#eb6834" stroke="#fcfcfb" stroke-width="2"/>
<circle cx="355.0" cy="269.0" r="4.5" fill="#eb6834" stroke="#fcfcfb" stroke-width="2"/>
<circle cx="388.0" cy="274.0" r="4.5" fill="#eb6834" stroke="#fcfcfb" stroke-width="2"/>
<circle cx="421.0" cy="379.0" r="4.5" fill="#eb6834" stroke="#fcfcfb" stroke-width="2"/>
<circle cx="454.0" cy="379.0" r="4.5" fill="#eb6834" stroke="#fcfcfb" stroke-width="2"/>
<circle cx="487.0" cy="379.0" r="4.5" fill="#eb6834" stroke="#fcfcfb" stroke-width="2"/>
<circle cx="520.0" cy="379.0" r="4.5" fill="#eb6834" stroke="#fcfcfb" stroke-width="2"/>
<circle cx="553.0" cy="379.0" r="4.5" fill="#eb6834" stroke="#fcfcfb" stroke-width="2"/>
<circle cx="586.0" cy="379.0" r="4.5" fill="#eb6834" stroke="#fcfcfb" stroke-width="2"/>
<circle cx="619.0" cy="379.0" r="4.5" fill="#eb6834" stroke="#fcfcfb" stroke-width="2"/>
<circle cx="652.0" cy="379.0" r="4.5" fill="#eb6834" stroke="#fcfcfb" stroke-width="2"/>
<circle cx="685.0" cy="379.0" r="4.5" fill="#eb6834" stroke="#fcfcfb" stroke-width="2"/>
<circle cx="718.0" cy="379.0" r="4.5" fill="#eb6834" stroke="#fcfcfb" stroke-width="2"/>
<circle cx="751.0" cy="379.0" r="4.5" fill="#eb6834" stroke="#fcfcfb" stroke-width="2"/>
<circle cx="784.0" cy="274.0" r="4.5" fill="#eb6834" stroke="#fcfcfb" stroke-width="2"/>
<text x="792.0" y="278.0" font-size="12" font-weight="600" fill="#eb6834">24 ms</text>
<text x="792.0" y="383.0" font-size="12" font-weight="600" fill="#2a78d6">3 ms</text>
<text x="58" y="417.0" font-size="13" font-weight="600" fill="#0b0b0b">遊戲路徑抖動 · 每輪 20 pps 突發的 mdev 中位數（ms）</text>
<line x1="58" y1="578.0" x2="784.0" y2="578.0" stroke="#e6e5e0" stroke-width="1"/>
<text x="50" y="582.0" font-size="11" text-anchor="end" fill="#8a8880">0</text>
<line x1="58" y1="503.0" x2="784.0" y2="503.0" stroke="#e6e5e0" stroke-width="1"/>
<text x="50" y="507.0" font-size="11" text-anchor="end" fill="#8a8880">0.4</text>
<line x1="58" y1="428.0" x2="784.0" y2="428.0" stroke="#e6e5e0" stroke-width="1"/>
<text x="50" y="432.0" font-size="11" text-anchor="end" fill="#8a8880">0.8</text>
<polyline fill="none" stroke="#2a78d6" stroke-width="2" stroke-linejoin="round" points="124.0,497.4 157.0,497.4 190.0,499.2 223.0,499.2 256.0,499.2 289.0,499.2 322.0,499.2 355.0,499.2 388.0,501.1 421.0,499.2 454.0,499.2 487.0,501.1 520.0,501.1 553.0,501.1 586.0,501.1 619.0,503.0 652.0,501.1 685.0,503.0 718.0,504.9 751.0,506.8 784.0,501.1"/>
<circle cx="124.0" cy="497.4" r="4.5" fill="#2a78d6" stroke="#fcfcfb" stroke-width="2"/>
<circle cx="157.0" cy="497.4" r="4.5" fill="#2a78d6" stroke="#fcfcfb" stroke-width="2"/>
<circle cx="190.0" cy="499.2" r="4.5" fill="#2a78d6" stroke="#fcfcfb" stroke-width="2"/>
<circle cx="223.0" cy="499.2" r="4.5" fill="#2a78d6" stroke="#fcfcfb" stroke-width="2"/>
<circle cx="256.0" cy="499.2" r="4.5" fill="#2a78d6" stroke="#fcfcfb" stroke-width="2"/>
<circle cx="289.0" cy="499.2" r="4.5" fill="#2a78d6" stroke="#fcfcfb" stroke-width="2"/>
<circle cx="322.0" cy="499.2" r="4.5" fill="#2a78d6" stroke="#fcfcfb" stroke-width="2"/>
<circle cx="355.0" cy="499.2" r="4.5" fill="#2a78d6" stroke="#fcfcfb" stroke-width="2"/>
<circle cx="388.0" cy="501.1" r="4.5" fill="#2a78d6" stroke="#fcfcfb" stroke-width="2"/>
<circle cx="421.0" cy="499.2" r="4.5" fill="#2a78d6" stroke="#fcfcfb" stroke-width="2"/>
<circle cx="454.0" cy="499.2" r="4.5" fill="#2a78d6" stroke="#fcfcfb" stroke-width="2"/>
<circle cx="487.0" cy="501.1" r="4.5" fill="#2a78d6" stroke="#fcfcfb" stroke-width="2"/>
<circle cx="520.0" cy="501.1" r="4.5" fill="#2a78d6" stroke="#fcfcfb" stroke-width="2"/>
<circle cx="553.0" cy="501.1" r="4.5" fill="#2a78d6" stroke="#fcfcfb" stroke-width="2"/>
<circle cx="586.0" cy="501.1" r="4.5" fill="#2a78d6" stroke="#fcfcfb" stroke-width="2"/>
<circle cx="619.0" cy="503.0" r="4.5" fill="#2a78d6" stroke="#fcfcfb" stroke-width="2"/>
<circle cx="652.0" cy="501.1" r="4.5" fill="#2a78d6" stroke="#fcfcfb" stroke-width="2"/>
<circle cx="685.0" cy="503.0" r="4.5" fill="#2a78d6" stroke="#fcfcfb" stroke-width="2"/>
<circle cx="718.0" cy="504.9" r="4.5" fill="#2a78d6" stroke="#fcfcfb" stroke-width="2"/>
<circle cx="751.0" cy="506.8" r="4.5" fill="#2a78d6" stroke="#fcfcfb" stroke-width="2"/>
<circle cx="784.0" cy="501.1" r="4.5" fill="#2a78d6" stroke="#fcfcfb" stroke-width="2"/>
<polyline fill="none" stroke="#eb6834" stroke-width="2" stroke-linejoin="round" points="124.0,446.8 157.0,454.2 190.0,443.0 223.0,441.1 256.0,450.5 289.0,450.5 322.0,437.4 355.0,448.6 388.0,448.6 421.0,452.4 454.0,452.4 487.0,454.2 520.0,450.5 553.0,458.0 586.0,452.4 619.0,458.0 652.0,456.1 685.0,450.5 718.0,450.5 751.0,446.8 784.0,448.6"/>
<circle cx="124.0" cy="446.8" r="4.5" fill="#eb6834" stroke="#fcfcfb" stroke-width="2"/>
<circle cx="157.0" cy="454.2" r="4.5" fill="#eb6834" stroke="#fcfcfb" stroke-width="2"/>
<circle cx="190.0" cy="443.0" r="4.5" fill="#eb6834" stroke="#fcfcfb" stroke-width="2"/>
<circle cx="223.0" cy="441.1" r="4.5" fill="#eb6834" stroke="#fcfcfb" stroke-width="2"/>
<circle cx="256.0" cy="450.5" r="4.5" fill="#eb6834" stroke="#fcfcfb" stroke-width="2"/>
<circle cx="289.0" cy="450.5" r="4.5" fill="#eb6834" stroke="#fcfcfb" stroke-width="2"/>
<circle cx="322.0" cy="437.4" r="4.5" fill="#eb6834" stroke="#fcfcfb" stroke-width="2"/>
<circle cx="355.0" cy="448.6" r="4.5" fill="#eb6834" stroke="#fcfcfb" stroke-width="2"/>
<circle cx="388.0" cy="448.6" r="4.5" fill="#eb6834" stroke="#fcfcfb" stroke-width="2"/>
<circle cx="421.0" cy="452.4" r="4.5" fill="#eb6834" stroke="#fcfcfb" stroke-width="2"/>
<circle cx="454.0" cy="452.4" r="4.5" fill="#eb6834" stroke="#fcfcfb" stroke-width="2"/>
<circle cx="487.0" cy="454.2" r="4.5" fill="#eb6834" stroke="#fcfcfb" stroke-width="2"/>
<circle cx="520.0" cy="450.5" r="4.5" fill="#eb6834" stroke="#fcfcfb" stroke-width="2"/>
<circle cx="553.0" cy="458.0" r="4.5" fill="#eb6834" stroke="#fcfcfb" stroke-width="2"/>
<circle cx="586.0" cy="452.4" r="4.5" fill="#eb6834" stroke="#fcfcfb" stroke-width="2"/>
<circle cx="619.0" cy="458.0" r="4.5" fill="#eb6834" stroke="#fcfcfb" stroke-width="2"/>
<circle cx="652.0" cy="456.1" r="4.5" fill="#eb6834" stroke="#fcfcfb" stroke-width="2"/>
<circle cx="685.0" cy="450.5" r="4.5" fill="#eb6834" stroke="#fcfcfb" stroke-width="2"/>
<circle cx="718.0" cy="450.5" r="4.5" fill="#eb6834" stroke="#fcfcfb" stroke-width="2"/>
<circle cx="751.0" cy="446.8" r="4.5" fill="#eb6834" stroke="#fcfcfb" stroke-width="2"/>
<circle cx="784.0" cy="448.6" r="4.5" fill="#eb6834" stroke="#fcfcfb" stroke-width="2"/>
<text x="792.0" y="452.6" font-size="12" font-weight="600" fill="#eb6834">0.69 ms</text>
<text x="792.0" y="505.1" font-size="12" font-weight="600" fill="#2a78d6">0.41 ms</text>
<text x="58.0" y="596.0" font-size="11" text-anchor="middle" fill="#8a8880">08/26</text>
<text x="157.0" y="596.0" font-size="11" text-anchor="middle" fill="#8a8880">08/29</text>
<text x="256.0" y="596.0" font-size="11" text-anchor="middle" fill="#8a8880">09/01</text>
<text x="355.0" y="596.0" font-size="11" text-anchor="middle" fill="#8a8880">09/04</text>
<text x="454.0" y="596.0" font-size="11" text-anchor="middle" fill="#8a8880">09/07</text>
<text x="553.0" y="596.0" font-size="11" text-anchor="middle" fill="#8a8880">09/10</text>
<text x="652.0" y="596.0" font-size="11" text-anchor="middle" fill="#8a8880">09/13</text>
<text x="751.0" y="596.0" font-size="11" text-anchor="middle" fill="#8a8880">09/16</text>
<text x="784.0" y="596.0" font-size="11" text-anchor="middle" fill="#8a8880">09/17</text>
<text x="58" y="630" font-size="11" fill="#8a8880">每日彙整 · 最後一天仍在累積中 · 產生時間 2026-09-17 15:14</text>
</svg>