<svg xmlns="http://www.w3.org/2000/svg" width="880" height="638" viewBox="0 0 880 638" font-family="ui-sans-serif,-apple-system,Segoe UI,Roboto,Helvetica,Arial,sans-serif">
<rect width="880" height="638" fill="#1a1a19"/>
<circle cx="63.0" cy="20" r="5" fill="#3987e5"/>
<text x="73.0" y="24" font-size="12" fill="#c3c2b7">Static IP (固定制)</text>
<circle cx="207.0" cy="20" r="5" fill="#d95926"/>
<text x="217.0" y="24" font-size="12" fill="#c3c2b7">Dynamic IP (浮動制)</text>
<text x="58" y="49.0" font-size="13" font-weight="600" fill="#ffffff">遊戲路徑 p95 · SDR relay RTT（ms）</text>
<line x1="58" y1="210.0" x2="784.0" y2="210.0" stroke="#2e2e2c" stroke-width="1"/>
<text x="50" y="214.0" font-size="11" text-anchor="end" fill="#8a8880">0</text>
<line x1="58" y1="135.0" x2="784.0" y2="135.0" stroke="#2e2e2c" stroke-width="1"/>
<text x="50" y="139.0" font-size="11" text-anchor="end" fill="#8a8880">40</text>
<line x1="58" y1="60.0" x2="784.0" y2="60.0" stroke="#2e2e2c" stroke-width="1"/>
<text x="50" y="64.0" font-size="11" text-anchor="end" fill="#8a8880">80</text>
<polyline fill="none" stroke="#3987e5" stroke-width="2" stroke-linejoin="round" points="58.0,146.2 100.7,103.1 143.4,144.4 186.1,144.4 228.8,144.4 271.5,146.2 314.2,146.2 356.9,146.2 399.6,144.4 442.4,144.4 485.1,146.2 527.8,146.2 570.5,146.2 613.2,146.2 655.9,144.4 698.6,146.2 741.3,144.4 784.0,146.2"/>
<circle cx="58.0" cy="146.2" r="4.5" fill="#3987e5" stroke="#1a1a19" stroke-width="2"/>
<circle cx="100.7" cy="103.1" r="4.5" fill="#3987e5" stroke="#1a1a19" stroke-width="2"/>
<circle cx="143.4" cy="144.4" r="4.5" fill="#3987e5" stroke="#1a1a19" stroke-width="2"/>
<circle cx="186.1" cy="144.4" r="4.5" fill="#3987e5" stroke="#1a1a19" stroke-width="2"/>
<circle cx="228.8" cy="144.4" r="4.5" fill="#3987e5" stroke="#1a1a19" stroke-width="2"/>
<circle cx="271.5" cy="146.2" r="4.5" fill="#3987e5" stroke="#1a1a19" stroke-width="2"/>
<circle cx="314.2" cy="146.2" r="4.5" fill="#3987e5" stroke="#1a1a19" stroke-width="2"/>
<circle cx="356.9" cy="146.2" r="4.5" fill="#3987e5" stroke="#1a1a19" stroke-width="2"/>
<circle cx="399.6" cy="144.4" r="4.5" fill="#3987e5" stroke="#1a1a19" stroke-width="2"/>
<circle cx="442.4" cy="144.4" r="4.5" fill="#3987e5" stroke="#1a1a19" stroke-width="2"/>
<circle cx="485.1" cy="146.2" r="4.5" fill="#3987e5" stroke="#1a1a19" stroke-width="2"/>
<circle cx="527.8" cy="146.2" r="4.5" fill="#3987e5" stroke="#1a1a19" stroke-width="2"/>
<circle cx="570.5" cy="146.2" r="4.5" fill="#3987e5" stroke="#1a1a19" stroke-width="2"/>
<circle cx="613.2" cy="146.2" r="4.5" fill="#3987e5" stroke="#1a1a19" stroke-width="2"/>
<circle cx="655.9" cy="144.4" r="4.5" fill="#3987e5" stroke="#1a1a19" stroke-width="2"/>
<circle cx="698.6" cy="146.2" r="4.5" fill="#3987e5" stroke="#1a1a19" stroke-width="2"/>
<circle cx="741.3" cy="144.4" r="4.5" fill="#3987e5" stroke="#1a1a19" stroke-width="2"/>
<circle cx="784.0" cy="146.2" r="4.5" fill="#3987e5" stroke="#1a1a19" stroke-width="2"/>
<polyline fill="none" stroke="#d95926" stroke-width="2" stroke-linejoin="round" points="58.0,135.0 100.7,101.2 143.4,142.5 186.1,140.6 228.8,140.6 271.5,146.2 314.2,146.2 356.9,144.4 399.6,142.5 442.4,146.2 485.1,142.5 527.8,144.4 570.5,146.2 613.2,146.2 655.9,146.2 698.6,144.4 741.3,144.4 784.0,142.5"/>
<circle cx="58.0" cy="135.0" r="4.5" fill="#d95926" stroke="#1a1a19" stroke-width="2"/>
<circle cx="100.7" cy="101.2" r="4.5" fill="#d95926" stroke="#1a1a19" stroke-width="2"/>
<circle cx="143.4" cy="142.5" r="4.5" fill="#d95926" stroke="#1a1a19" stroke-width="2"/>
<circle cx="186.1" cy="140.6" r="4.5" fill="#d95926" stroke="#1a1a19" stroke-width="2"/>
<circle cx="228.8" cy="140.6" r="4.5" fill="#d95926" stroke="#1a1a19" stroke-width="2"/>
<circle cx="271.5" cy="146.2" r="4.5" fill="#d95926" stroke="#1a1a19" stroke-width="2"/>
<circle cx="314.2" cy="146.2" r="4.5" fill="#d95926" stroke="#1a1a19" stroke-width="2"/>
<circle cx="356.9" cy="144.4" r="4.5" fill="#d95926" stroke="#1a1a19" stroke-width="2"/>
<circle cx="399.6" cy="142.5" r="4.5" fill="#d95926" stroke="#1a1a19" stroke-width="2"/>
<circle cx="442.4" cy="146.2" r="4.5" fill="#d95926" stroke="#1a1a19" stroke-width="2"/>
<circle cx="485.1" cy="142.5" r="4.5" fill="#d95926" stroke="#1a1a19" stroke-width="2"/>
<circle cx="527.8" cy="144.4" r="4.5" fill="#d95926" stroke="#1a1a19" stroke-width="2"/>
<circle cx="570.5" cy="146.2" r="4.5" fill="#d95926" stroke="#1a1a19" stroke-width="2"/>
<circle cx="613.2" cy="146.2" r="4.5" fill="#d95926" stroke="#1a1a19" stroke-width="2"/>
<circle cx="655.9" cy="146.2" r="4.5" fill="#d95926" stroke="#1a1a19" stroke-width="2"/>
<circle cx="698.6" cy="144.4" r="4.5" fill="#d95926" stroke="#1a1a19" stroke-width="2"/>
<circle cx="741.3" cy="144.4" r="4.5" fill="#d95926" stroke="#1a1a19" stroke-width="2"/>
<circle cx="784.0" cy="142.5" r="4.5" fill="#d95926" stroke="#1a1a19" stroke-width="2"/>
<text x="792.0" y="141.9" font-size="12" font-weight="600" fill="#d95926">36 ms</text>
<text x="792.0" y="154.9" font-size="12" font-weight="600" fill="#3987e5">34 ms</text>
<text x="58" y="233.0" font-size="13" font-weight="600" fill="#ffffff">Cloudflare 1.1.1.1 中位數（ms）</text>
<line x1="58" y1="394.0" x2="784.0" y2="394.0" stroke="#2e2e2c" stroke-width="1"/>
<text x="50" y="398.0" font-size="11" text-anchor="end" fill="#8a8880">0</text>
<line x1="58" y1="319.0" x2="784.0" y2="319.0" stroke="#2e2e2c" stroke-width="1"/>
<text x="50" y="323.0" font-size="11" text-anchor="end" fill="#8a8880">15</text>
<line x1="58" y1="244.0" x2="784.0" y2="244.0" stroke="#2e2e2c" stroke-width="1"/>
<text x="50" y="248.0" font-size="11" text-anchor="end" fill="#8a8880">30</text>
<polyline fill="none" stroke="#3987e5" stroke-width="2" stroke-linejoin="round" points="58.0,379.0 100.7,379.0 143.4,379.0 186.1,379.0 228.8,379.0 271.5,379.0 314.2,379.0 356.9,379.0 399.6,379.0 442.4,379.0 485.1,379.0 527.8,379.0 570.5,379.0 613.2,379.0 655.9,379.0 698.6,379.0 741.3,379.0 784.0,379.0"/>
<circle cx="58.0" cy="379.0" r="4.5" fill="#3987e5" stroke="#1a1a19" stroke-width="2"/>
<circle cx="100.7" cy="379.0" r="4.5" fill="#3987e5" stroke="#1a1a19" stroke-width="2"/>
<circle cx="143.4" cy="379.0" r="4.5" fill="#3987e5" stroke="#1a1a19" stroke-width="2"/>
<circle cx="186.1" cy="379.0" r="4.5" fill="#3987e5" stroke="#1a1a19" stroke-width="2"/>
<circle cx="228.8" cy="379.0" r="4.5" fill="#3987e5" stroke="#1a1a19" stroke-width="2"/>
<circle cx="271.5" cy="379.0" r="4.5" fill="#3987e5" stroke="#1a1a19" stroke-width="2"/>
<circle cx="314.2" cy="379.0" r="4.5" fill="#3987e5" stroke="#1a1a19" stroke-width="2"/>
<circle cx="356.9" cy="379.0" r="4.5" fill="#3987e5" stroke="#1a1a19" stroke-width="2"/>
<circle cx="399.6" cy="379.0" r="4.5" fill="#3987e5" stroke="#1a1a19" stroke-width="2"/>
<circle cx="442.4" cy="379.0" r="4.5" fill="#3987e5" stroke="#1a1a19" stroke-width="2"/>
<circle cx="485.1" cy="379.0" r="4.5" fill="#3987e5" stroke="#1a1a19" stroke-width="2"/>
<circle cx="527.8" cy="379.0" r="4.5" fill="#3987e5" stroke="#1a1a19" stroke-width="2"/>
<circle cx="570.5" cy="379.0" r="4.5" fill="#3987e5" stroke="#1a1a19" stroke-width="2"/>
<circle cx="613.2" cy="379.0" r="4.5" fill="#3987e5" stroke="#1a1a19" stroke-width="2"/>
<circle cx="655.9" cy="379.0" r="4.5" fill="#3987e5" stroke="#1a1a19" stroke-width="2"/>
<circle cx="698.6" cy="379.0" r="4.5" fill="#3987e5" stroke="#1a1a19" stroke-width="2"/>
<circle cx="741.3" cy="379.0" r="4.5" fill="#3987e5" stroke="#1a1a19" stroke-width="2"/>
<circle cx="784.0" cy="379.0" r="4.5" fill="#3987e5" stroke="#1a1a19" stroke-width="2"/>
<polyline fill="none" stroke="#d95926" stroke-width="2" stroke-linejoin="round" points="58.0,269.0 100.7,274.0 143.4,379.0 186.1,379.0 228.8,274.0 271.5,269.0 314.2,269.0 356.9,269.0 399.6,269.0 442.4,269.0 485.1,274.0 527.8,379.0 570.5,379.0 613.2,379.0 655.9,379.0 698.6,379.0 741.3,379.0 784.0,379.0"/>
<circle cx="58.0" cy="269.0" r="4.5" fill="#d95926" stroke="#1a1a19" stroke-width="2"/>
<circle cx="100.7" cy="274.0" r="4.5" fill="#d95926" stroke="#1a1a19" stroke-width="2"/>
<circle cx="143.4" cy="379.0" r="4.5" fill="#d95926" stroke="#1a1a19" stroke-width="2"/>
<circle cx="186.1" cy="379.0" r="4.5" fill="#d95926" stroke="#1a1a19" stroke-width="2"/>
<circle cx="228.8" cy="274.0" r="4.5" fill="#d95926" stroke="#1a1a19" stroke-width="2"/>
<circle cx="271.5" cy="269.0" r="4.5" fill="#d95926" stroke="#1a1a19" stroke-width="2"/>
<circle cx="314.2" cy="269.0" r="4.5" fill="#d95926" stroke="#1a1a19" stroke-width="2"/>
<circle cx="356.9" cy="269.0" r="4.5" fill="#d95926" stroke="#1a1a19" stroke-width="2"/>
<circle cx="399.6" cy="269.0" r="4.5" fill="#d95926" stroke="#1a1a19" stroke-width="2"/>
<circle cx="442.4" cy="269.0" r="4.5" fill="#d95926" stroke="#1a1a19" stroke-width="2"/>
<circle cx="485.1" cy="274.0" r="4.5" fill="#d95926" stroke="#1a1a19" stroke-width="2"/>
<circle cx="527.8" cy="379.0" r="4.5" fill="#d95926" stroke="#1a1a19" stroke-width="2"/>
<circle cx="570.5" cy="379.0" r="4.5" fill="#d95926" stroke="#1a1a19" stroke-width="2"/>
<circle cx="613.2" cy="379.0" r="4.5" fill="#d95926" stroke="#1a1a19" stroke-width="2"/>
<circle cx="655.9" cy="379.0" r="4.5" fill="#d95926" stroke="#1a1a19" stroke-width="2"/>
<circle cx="698.6" cy="379.0" r="4.5" fill="#d95926" stroke="#1a1a19" stroke-width="2"/>
<circle cx="741.3" cy="379.0" r="4.5" fill="#d95926" stroke="#1a1a19" stroke-width="2"/>
<circle cx="784.0" cy="379.0" r="4.5" fill="#d95926" stroke="#1a1a19" stroke-width="2"/>
<text x="792.0" y="376.5" font-size="12" font-weight="600" fill="#3987e5">3 ms</text>
<text x="792.0" y="389.5" font-size="12" font-weight="600" fill="#d95926">3 ms</text>
<text x="58" y="417.0" font-size="13" font-weight="600" fill="#ffffff">遊戲路徑抖動 · 每輪 20 pps 突發的 mdev 中位數（ms）</text>
<line x1="58" y1="578.0" x2="784.0" y2="578.0" stroke="#2e2e2c" stroke-width="1"/>
<text x="50" y="582.0" font-size="11" text-anchor="end" fill="#8a8880">0</text>
<line x1="58" y1="503.0" x2="784.0" y2="503.0" stroke="#2e2e2c" stroke-width="1"/>
<text x="50" y="507.0" font-size="11" text-anchor="end" fill="#8a8880">0.4</text>
<line x1="58" y1="428.0" x2="784.0" y2="428.0" stroke="#2e2e2c" stroke-width="1"/>
<text x="50" y="432.0" font-size="11" text-anchor="end" fill="#8a8880">0.8</text>
<polyline fill="none" stroke="#3987e5" stroke-width="2" stroke-linejoin="round" points="143.4,497.4 186.1,497.4 228.8,499.2 271.5,499.2 314.2,499.2 356.9,499.2 399.6,499.2 442.4,499.2 485.1,501.1 527.8,499.2 570.5,499.2 613.2,501.1 655.9,501.1 698.6,501.1 741.3,501.1 784.0,503.0"/>
<circle cx="143.4" cy="497.4" r="4.5" fill="#3987e5" stroke="#1a1a19" stroke-width="2"/>
<circle cx="186.1" cy="497.4" r="4.5" fill="#3987e5" stroke="#1a1a19" stroke-width="2"/>
<circle cx="228.8" cy="499.2" r="4.5" fill="#3987e5" stroke="#1a1a19" stroke-width="2"/>
<circle cx="271.5" cy="499.2" r="4.5" fill="#3987e5" stroke="#1a1a19" stroke-width="2"/>
<circle cx="314.2" cy="499.2" r="4.5" fill="#3987e5" stroke="#1a1a19" stroke-width="2"/>
<circle cx="356.9" cy="499.2" r="4.5" fill="#3987e5" stroke="#1a1a19" stroke-width="2"/>
<circle cx="399.6" cy="499.2" r="4.5" fill="#3987e5" stroke="#1a1a19" stroke-width="2"/>
<circle cx="442.4" cy="499.2" r="4.5" fill="#3987e5" stroke="#1a1a19" stroke-width="2"/>
<circle cx="485.1" cy="501.1" r="4.5" fill="#3987e5" stroke="#1a1a19" stroke-width="2"/>
<circle cx="527.8" cy="499.2" r="4.5" fill="#3987e5" stroke="#1a1a19" stroke-width="2"/>
<circle cx="570.5" cy="499.2" r="4.5" fill="#3987e5" stroke="#1a1a19" stroke-width="2"/>
<circle cx="613.2" cy="501.1" r="4.5" fill="#3987e5" stroke="#1a1a19" stroke-width="2"/>
<circle cx="655.9" cy="501.1" r="4.5" fill="#3987e5" stroke="#1a1a19" stroke-width="2"/>
<circle cx="698.6" cy="501.1" r="4.5" fill="#3987e5" stroke="#1a1a19" stroke-width="2"/>
<circle cx="741.3" cy="501.1" r="4.5" fill="#3987e5" stroke="#1a1a19" stroke-width="2"/>
<circle cx="784.0" cy="503.0" r="4.5" fill="#3987e5" stroke="#1a1a19" stroke-width="2"/>
<polyline fill="none" stroke="#d95926" stroke-width="2" stroke-linejoin="round" points="143.4,446.8 186.1,454.2 228.8,443.0 271.5,441.1 314.2,450.5 356.9,450.5 399.6,437.4 442.4,448.6 485.1,448.6 527.8,452.4 570.5,452.4 613.2,454.2 655.9,450.5 698.6,458.0 741.3,452.4 784.0,458.0"/>
<circle cx="143.4" cy="446.8" r="4.5" fill="#d95926" stroke="#1a1a19" stroke-width="2"/>
<circle cx="186.1" cy="454.2" r="4.5" fill="#d95926" stroke="#1a1a19" stroke-width="2"/>
<circle cx="228.8" cy="443.0" r="4.5" fill="#d95926" stroke="#1a1a19" stroke-width="2"/>
<circle cx="271.5" cy="441.1" r="4.5" fill="#d95926" stroke="#1a1a19" stroke-width="2"/>
<circle cx="314.2" cy="450.5" r="4.5" fill="#d95926" stroke="#1a1a19" stroke-width="2"/>
<circle cx="356.9" cy="450.5" r="4.5" fill="#d95926" stroke="#1a1a19" stroke-width="2"/>
<circle cx="399.6" cy="437.4" r="4.5" fill="#d95926" stroke="#1a1a19" stroke-width="2"/>
<circle cx="442.4" cy="448.6" r="4.5" fill="#d95926" stroke="#1a1a19" stroke-width="2"/>
<circle cx="485.1" cy="448.6" r="4.5" fill="#d95926" stroke="#1a1a19" stroke-width="2"/>
<circle cx="527.8" cy="452.4" r="4.5" fill="#d95926" stroke="#1a1a19" stroke-width="2"/>
<circle cx="570.5" cy="452.4" r="4.5" fill="#d95926" stroke="#1a1a19" stroke-width="2"/>
<circle cx="613.2" cy="454.2" r="4.5" fill="#d95926" stroke="#1a1a19" stroke-width="2"/>
<circle cx="655.9" cy="450.5" r="4.5" fill="#d95926" stroke="#1a1a19" stroke-width="2"/>
<circle cx="698.6" cy="458.0" r="4.5" fill="#d95926" stroke="#1a1a19" stroke-width="2"/>
<circle cx="741.3" cy="452.4" r="4.5" fill="#d95926" stroke="#1a1a19" stroke-width="2"/>
<circle cx="784.0" cy="458.0" r="4.5" fill="#d95926" stroke="#1a1a19" stroke-width="2"/>
<text x="792.0" y="462.0" font-size="12" font-weight="600" fill="#d95926">0.64 ms</text>
<text x="792.0" y="507.0" font-size="12" font-weight="600" fill="#3987e5">0.4 ms</text>
<text x="58.0" y="596.0" font-size="11" text-anchor="middle" fill="#8a8880">08/26</text>
<text x="186.1" y="596.0" font-size="11" text-anchor="middle" fill="#8a8880">08/29</text>
<text x="314.2" y="596.0" font-size="11" text-anchor="middle" fill="#8a8880">09/01</text>
<text x="442.4" y="596.0" font-size="11" text-anchor="middle" fill="#8a8880">09/04</text>
<text x="570.5" y="596.0" font-size="11" text-anchor="middle" fill="#8a8880">09/07</text>
<text x="698.6" y="596.0" font-size="11" text-anchor="middle" fill="#8a8880">09/10</text>
<text x="784.0" y="596.0" font-size="11" text-anchor="middle" fill="#8a8880">09/12</text>
<text x="58" y="630" font-size="11" fill="#8a8880">每日彙整 · 最後一天仍在累積中 · 產生時間 2026-09-12 19:17</text>
</svg>